<svg id="Layer_1" data-name="Layer 1" xmlns="http://www.w3.org/2000/svg" viewBox="0 0 512 510.64"><defs><style>.cls-1{fill:#707071;}</style></defs><path class="cls-1" d="M442.51,0h-373A68.81,68.81,0,0,0,.68,68.81v373a68.81,68.81,0,0,0,68.81,68.81h184l.31-182.48h-47.4A11.19,11.19,0,0,1,195.18,317L195,258.2A11.18,11.18,0,0,1,206.14,247h47.32V190.14c0-66,40.28-101.87,99.12-101.87h48.28a11.19,11.19,0,0,1,11.19,11.19v49.59a11.19,11.19,0,0,1-11.18,11.19H371.24c-32,0-38.2,15.21-38.2,37.52V247h70.31a11.19,11.19,0,0,1,11.11,12.51l-7,58.82a11.19,11.19,0,0,1-11.11,9.86h-63L333,510.64H442.51a68.81,68.81,0,0,0,68.81-68.81v-373A68.81,68.81,0,0,0,442.51,0Z"/></svg>
