<svg xmlns="http://www.w3.org/2000/svg" viewBox="0 0 1100 800"><defs><style>.cls-1{fill:none;}.cls-2{fill:#b6ddf2;}.cls-3{fill:#bf8c69;}.cls-4{fill:#ffbb8c;}.cls-5{fill:#ffebbf;}.cls-6{fill:#ba5058;}.cls-7{fill:#f7931e;}.cls-8{fill:#ffde94;}.cls-9{fill:#defffb;}.cls-10{fill:#b3f1ff;}.cls-11{fill:#6b4940;}.cls-12{fill:#f29770;}.cls-13{fill:#ffa985;}.cls-14{fill:#fff28c;}.cls-15{fill:#997c5f;}.cls-16{fill:#569175;}</style></defs><g id="Layer_7" data-name="Layer 7"><line class="cls-1" x1="427.32" y1="527.51" x2="443.32" y2="331.51"/><path class="cls-2" d="M164.33,217.71l187-1,149,1c-10-11.09-27.24-26.75-52-33-37.37-9.44-70.42,8-81-7-7.56-10.72,5.65-24.87-3-35-7.3-8.56-23.49-6.4-49-3-27.87,3.71-32.76,8.87-45,5-15.94-5.05-14.7-16.05-29-20-18.16-5-41.86,6.73-54,23-12.29,16.47-7.57,30.66-20,37-9.67,4.93-16.31-1.73-29,1-9.68,2.08-21.61,9.35-33,31Z"/><path class="cls-2" d="M908.82,147.71l-172.8-1-137.69,1c9.27-11.09,25.18-26.75,48-33,34.54-9.44,65.08,8,74.85-7,7-10.72-5.22-24.87,2.78-35,6.74-8.56,21.71-6.4,45.27-3,25.76,3.71,30.28,8.87,41.59,5,14.73-5,13.58-16,26.79-20,16.79-5,38.69,6.73,49.9,23,11.36,16.47,7,30.66,18.48,37,8.94,4.93,15.08-1.73,26.8,1,8.95,2.08,20,9.35,30.49,31Z"/><path class="cls-2" d="M766.84,182.71l141.08-.65,112.41.65c-7.56-7.19-20.55-17.33-39.23-21.38C952.9,155.22,928,166.5,920,156.8c-5.7-7,4.26-16.11-2.26-22.67-5.51-5.54-17.73-4.15-37-1.95-21,2.41-24.72,5.75-34,3.24-12-3.27-11.09-10.39-21.88-12.95-13.7-3.26-31.58,4.36-40.74,14.89s-5.71,19.86-15.09,24c-7.3,3.2-12.31-1.12-21.88.65-7.3,1.35-16.3,6.06-24.9,20.08Z"/><path class="cls-3" d="M688.84,442q-.76-170.41-1.52-340.84c10.4-3.32,21.27-6.39,32.61-9.12q10.86-2.59,21.24-4.55l-8.34,360.21Z"/><path class="cls-4" d="M788.19,110.3,740.41,87.51q-3.79,188.09-7.58,376.17l45.5-6.84Q783.27,283.58,788.19,110.3Z"/><polygon class="cls-4" points="697.94 121.5 691.87 121.7 691.87 108.42 697.94 106.88 697.94 121.5"/><polygon class="cls-4" points="707.04 120.36 700.98 120.56 700.98 107.28 707.04 105.74 707.04 120.36"/><polygon class="cls-4" points="716.14 119.22 710.08 119.42 710.08 106.14 716.14 104.6 716.14 119.22"/><polygon class="cls-4" points="725.24 118.08 719.18 118.28 719.18 105 725.24 103.46 725.24 118.08"/><polygon class="cls-4" points="697.94 143.16 691.87 143.36 691.87 130.08 697.94 128.54 697.94 143.16"/><polygon class="cls-4" points="707.04 142.01 700.98 142.22 700.98 128.94 707.04 127.4 707.04 142.01"/><polygon class="cls-4" points="725.24 199.01 719.18 199.22 719.18 185.93 725.24 184.4 725.24 199.01"/><polygon class="cls-4" points="734.34 197.87 728.28 198.08 728.28 184.79 734.34 183.26 734.34 197.87"/><polygon class="cls-4" points="707.04 200.15 700.98 200.36 700.98 187.07 707.04 185.54 707.04 200.15"/><polygon class="cls-4" points="716.14 199.01 710.08 199.22 710.08 185.93 716.14 184.4 716.14 199.01"/><polygon class="cls-4" points="705.52 219.53 699.46 219.74 699.46 206.45 705.52 204.92 705.52 219.53"/><polygon class="cls-4" points="714.63 218.39 708.56 218.6 708.56 205.31 714.63 203.78 714.63 218.39"/><polygon class="cls-4" points="725.24 218.39 719.18 218.6 719.18 205.31 725.24 203.78 725.24 218.39"/><polygon class="cls-4" points="734.34 217.25 728.28 217.46 728.28 204.17 734.34 202.64 734.34 217.25"/><polygon class="cls-4" points="725.24 237.77 719.18 237.98 719.18 224.69 725.24 223.16 725.24 237.77"/><polygon class="cls-4" points="734.34 236.63 728.28 236.84 728.28 223.55 734.34 222.02 734.34 236.63"/><polygon class="cls-4" points="726.76 178.49 720.69 178.7 720.69 165.41 726.76 163.88 726.76 178.49"/><polygon class="cls-4" points="735.1 177.35 729.03 177.56 729.03 164.27 735.1 162.74 735.1 177.35"/><polygon class="cls-3" points="751.33 178.2 757.65 178.63 757.86 165.35 751.55 163.59 751.33 178.2"/><polygon class="cls-3" points="741.86 176.73 748.18 177.16 748.39 163.88 742.09 162.13 741.86 176.73"/><polygon class="cls-3" points="760.82 178.53 767.14 178.96 767.34 165.68 761.04 163.92 760.82 178.53"/><polygon class="cls-3" points="771.57 199.43 777.89 199.86 778.09 186.57 771.79 184.82 771.57 199.43"/><polygon class="cls-3" points="751.85 216.53 758.17 216.96 758.37 203.67 752.07 201.92 751.85 216.53"/><polygon class="cls-3" points="762.1 197.96 768.42 198.39 768.62 185.1 762.32 183.35 762.1 197.96"/><polygon class="cls-3" points="751.03 197.58 757.35 198 757.56 184.72 751.26 182.97 751.03 197.58"/><polygon class="cls-3" points="741.57 196.11 747.88 196.53 748.09 183.25 741.79 181.5 741.57 196.11"/><polygon class="cls-3" points="750.07 157.63 756.39 158.06 756.59 144.78 750.29 143.03 750.07 157.63"/><polygon class="cls-3" points="741.39 156.19 747.71 156.62 747.91 143.34 741.61 141.58 741.39 156.19"/><polygon class="cls-3" points="749.05 288.78 755.38 289.2 755.58 275.92 749.28 274.17 749.05 288.78"/><polygon class="cls-3" points="739.59 287.31 745.91 287.73 746.11 274.45 739.81 272.7 739.59 287.31"/><polygon class="cls-3" points="758.54 289.11 764.86 289.53 765.07 276.25 758.77 274.5 758.54 289.11"/><polygon class="cls-3" points="769.29 310 775.61 310.43 775.82 297.15 769.52 295.39 769.29 310"/><polygon class="cls-3" points="769.29 328.24 775.61 328.67 775.82 315.39 769.52 313.63 769.29 328.24"/><polygon class="cls-3" points="769.29 291.76 775.61 292.19 775.82 278.91 769.52 277.16 769.29 291.76"/><polygon class="cls-3" points="759.82 308.54 766.14 308.96 766.35 295.68 760.05 293.93 759.82 308.54"/><polygon class="cls-3" points="748.76 308.15 755.08 308.58 755.28 295.29 748.98 293.54 748.76 308.15"/><polygon class="cls-3" points="739.29 306.68 745.61 307.11 745.81 293.82 739.51 292.07 739.29 306.68"/><polygon class="cls-3" points="756.89 269.35 763.21 269.77 763.42 256.49 757.12 254.74 756.89 269.35"/><path class="cls-3" d="M805.65,450.89q-7.74-149.29-15.49-298.6c13.56-3.53,27.76-6.87,42.6-9.93q14.19-2.94,27.79-5.26l3.27,316.17Z"/><path class="cls-4" d="M923.39,154.28l-63.84-17.14q2.44,165.06,4.9,330.12l59.67-8.71Q923.75,306.42,923.39,154.28Z"/><polygon class="cls-4" points="804.95 169.46 796.97 170 796.44 158.35 804.37 156.65 804.95 169.46"/><polygon class="cls-4" points="816.89 167.92 808.91 168.46 808.38 156.81 816.31 155.11 816.89 167.92"/><polygon class="cls-4" points="828.84 166.38 820.85 166.92 820.33 155.27 828.26 153.57 828.84 166.38"/><polygon class="cls-4" points="840.78 164.84 832.79 165.38 832.27 153.73 840.2 152.03 840.78 164.84"/><polygon class="cls-4" points="805.81 188.44 797.82 188.98 797.3 177.34 805.23 175.63 805.81 188.44"/><polygon class="cls-4" points="817.75 186.9 809.77 187.44 809.24 175.79 817.17 174.09 817.75 186.9"/><polygon class="cls-4" points="843.98 235.76 836 236.31 835.47 224.66 843.4 222.96 843.98 235.76"/><polygon class="cls-4" points="855.92 234.22 847.94 234.76 847.41 223.12 855.35 221.42 855.92 234.22"/><polygon class="cls-4" points="820.05 237.84 812.07 238.39 811.54 226.74 819.47 225.04 820.05 237.84"/><polygon class="cls-4" points="831.99 236.3 824.01 236.85 823.48 225.2 831.41 223.5 831.99 236.3"/><polygon class="cls-4" points="818.82 254.92 810.84 255.46 810.31 243.82 818.24 242.11 818.82 254.92"/><polygon class="cls-4" points="830.76 253.38 822.78 253.92 822.25 242.28 830.18 240.57 830.76 253.38"/><polygon class="cls-4" points="844.75 252.75 836.76 253.29 836.24 241.64 844.17 239.94 844.75 252.75"/><polygon class="cls-4" points="856.69 251.21 848.71 251.75 848.18 240.1 856.11 238.4 856.69 251.21"/><polygon class="cls-4" points="845.51 269.73 837.53 270.27 837.01 258.63 844.94 256.92 845.51 269.73"/><polygon class="cls-4" points="857.46 268.19 849.47 268.73 848.95 257.09 856.88 255.38 857.46 268.19"/><polygon class="cls-4" points="845.17 217.69 837.18 218.23 836.66 206.59 844.59 204.88 845.17 217.69"/><polygon class="cls-4" points="856.11 216.19 848.13 216.74 847.6 205.09 855.53 203.39 856.11 216.19"/><polygon class="cls-3" points="877.52 215.97 885.86 215.97 885.61 204.32 877.24 203.16 877.52 215.97"/><polygon class="cls-3" points="864.99 215.25 873.33 215.25 873.08 203.59 864.71 202.43 864.99 215.25"/><polygon class="cls-3" points="890.03 215.7 898.37 215.7 898.11 204.04 889.75 202.88 890.03 215.7"/><polygon class="cls-3" points="905.02 233.37 913.36 233.37 913.1 221.72 904.74 220.56 905.02 233.37"/><polygon class="cls-3" points="879.72 249.53 888.06 249.53 887.81 237.88 879.44 236.72 879.72 249.53"/><polygon class="cls-3" points="892.49 232.65 900.83 232.65 900.57 220.99 892.21 219.83 892.49 232.65"/><polygon class="cls-3" points="877.89 232.97 886.24 232.97 885.98 221.31 877.61 220.15 877.89 232.97"/><polygon class="cls-3" points="865.37 232.25 873.71 232.24 873.45 220.59 865.08 219.43 865.37 232.25"/><polygon class="cls-3" points="875.04 198.02 883.38 198.02 883.13 186.37 874.76 185.21 875.04 198.02"/><polygon class="cls-3" points="863.55 197.28 871.89 197.28 871.64 185.62 863.27 184.46 863.55 197.28"/><polygon class="cls-3" points="878.9 313.01 887.24 313.01 886.99 301.36 878.62 300.19 878.9 313.01"/><polygon class="cls-3" points="866.37 312.29 874.71 312.28 874.46 300.63 866.09 299.47 866.37 312.29"/><polygon class="cls-3" points="891.41 312.74 899.75 312.73 899.49 301.08 891.13 299.92 891.41 312.74"/><polygon class="cls-3" points="906.4 330.41 914.74 330.41 914.48 318.75 906.11 317.59 906.4 330.41"/><polygon class="cls-3" points="907.12 346.39 915.46 346.39 915.2 334.74 906.84 333.58 907.12 346.39"/><polygon class="cls-3" points="905.67 314.43 914.02 314.42 913.76 302.77 905.39 301.61 905.67 314.43"/><polygon class="cls-3" points="893.87 329.69 902.21 329.68 901.95 318.03 893.59 316.87 893.87 329.69"/><polygon class="cls-3" points="879.27 330.01 887.62 330 887.36 318.35 878.99 317.19 879.27 330.01"/><polygon class="cls-3" points="866.75 329.28 875.09 329.28 874.83 317.63 866.46 316.47 866.75 329.28"/><polygon class="cls-3" points="888.45 295.52 896.79 295.52 896.54 283.86 888.17 282.7 888.45 295.52"/><path class="cls-4" d="M982.8,501.37q2.57-127.36,5.11-254.72c-6.56-2.82-13.43-5.47-20.6-7.87-4.58-1.54-9.06-2.89-13.44-4.1l.93,269.53Z"/><path class="cls-3" d="M923.73,250.21l30.63-15.5.24,281.43-28.82-6.59Q924.76,379.88,923.73,250.21Z"/><polygon class="cls-3" points="980.92 261.49 984.77 261.84 984.93 251.91 981.1 250.56 980.92 261.49"/><polygon class="cls-3" points="975.15 260.34 979 260.69 979.16 250.76 975.33 249.42 975.15 260.34"/><polygon class="cls-3" points="969.38 259.19 973.24 259.55 973.4 249.62 969.56 248.27 969.38 259.19"/><polygon class="cls-3" points="963.62 258.05 967.47 258.4 967.63 248.47 963.8 247.13 963.62 258.05"/><polygon class="cls-3" points="980.65 277.68 984.51 278.03 984.67 268.1 980.83 266.75 980.65 277.68"/><polygon class="cls-3" points="974.89 276.53 978.74 276.88 978.9 266.95 975.07 265.61 974.89 276.53"/><polygon class="cls-3" points="962.63 318.55 966.49 318.9 966.65 308.97 962.81 307.62 962.63 318.55"/><polygon class="cls-3" points="956.87 317.4 960.72 317.75 960.88 307.82 957.05 306.48 956.87 317.4"/><polygon class="cls-3" points="974.18 319.99 978.03 320.34 978.2 310.41 974.36 309.06 974.18 319.99"/><polygon class="cls-3" points="968.41 318.84 972.27 319.19 972.43 309.26 968.59 307.92 968.41 318.84"/><polygon class="cls-3" points="974.91 334.52 978.76 334.87 978.92 324.94 975.09 323.6 974.91 334.52"/><polygon class="cls-3" points="969.14 333.37 972.99 333.73 973.16 323.79 969.32 322.45 969.14 333.37"/><polygon class="cls-3" points="962.4 333.03 966.25 333.38 966.41 323.45 962.58 322.11 962.4 333.03"/><polygon class="cls-3" points="956.63 331.88 960.48 332.24 960.65 322.31 956.81 320.96 956.63 331.88"/><polygon class="cls-3" points="962.16 347.52 966.01 347.87 966.18 337.94 962.34 336.59 962.16 347.52"/><polygon class="cls-3" points="956.4 346.37 960.25 346.72 960.41 336.79 956.58 335.45 956.4 346.37"/><polygon class="cls-3" points="961.92 303.16 965.77 303.51 965.93 293.58 962.1 292.24 961.92 303.16"/><polygon class="cls-3" points="956.64 302.04 960.49 302.39 960.65 292.46 956.81 291.12 956.64 302.04"/><polygon class="cls-4" points="946.32 302.15 942.3 302.26 942.33 292.33 946.35 291.22 946.32 302.15"/><polygon class="cls-4" points="952.35 301.36 948.33 301.47 948.36 291.54 952.38 290.43 952.35 301.36"/><polygon class="cls-4" points="940.29 302.09 936.27 302.2 936.3 292.27 940.32 291.16 940.29 302.09"/><polygon class="cls-4" points="933.21 317.36 929.19 317.48 929.22 307.54 933.24 306.44 933.21 317.36"/><polygon class="cls-4" points="945.52 330.78 941.5 330.89 941.53 320.96 945.56 319.85 945.52 330.78"/><polygon class="cls-4" points="939.24 316.57 935.22 316.68 935.25 306.75 939.27 305.64 939.24 316.57"/><polygon class="cls-4" points="946.27 316.64 942.25 316.75 942.28 306.82 946.31 305.71 946.27 316.64"/><polygon class="cls-4" points="952.3 315.85 948.28 315.96 948.32 306.03 952.34 304.92 952.3 315.85"/><polygon class="cls-4" points="947.37 286.81 943.35 286.93 943.38 277 947.41 275.89 947.37 286.81"/><polygon class="cls-4" points="952.9 286.02 948.88 286.13 948.91 276.2 952.94 275.09 952.9 286.02"/><polygon class="cls-4" points="946.42 384.87 942.4 384.99 942.43 375.05 946.45 373.95 946.42 384.87"/><polygon class="cls-4" points="952.45 384.08 948.43 384.19 948.46 374.26 952.49 373.15 952.45 384.08"/><polygon class="cls-4" points="940.39 384.81 936.37 384.93 936.4 374.99 940.43 373.89 940.39 384.81"/><polygon class="cls-4" points="933.31 400.09 929.29 400.2 929.32 390.27 933.34 389.16 933.31 400.09"/><polygon class="cls-4" points="933.09 413.72 929.07 413.83 929.1 403.9 933.12 402.79 933.09 413.72"/><polygon class="cls-4" points="933.53 386.45 929.51 386.57 929.54 376.63 933.57 375.53 933.53 386.45"/><polygon class="cls-4" points="939.34 399.29 935.32 399.41 935.35 389.47 939.38 388.37 939.34 399.29"/><polygon class="cls-4" points="946.37 399.36 942.35 399.48 942.39 389.54 946.41 388.44 946.37 399.36"/><polygon class="cls-4" points="952.4 398.57 948.38 398.69 948.42 388.75 952.44 387.64 952.4 398.57"/><polygon class="cls-4" points="941.68 370.1 937.66 370.21 937.69 360.28 941.71 359.17 941.68 370.1"/><path class="cls-4" d="M1019.8,578.37q2.57-127.36,5.11-254.72c-6.56-2.82-13.43-5.47-20.6-7.87-4.58-1.54-9.06-2.89-13.44-4.1l.93,269.53Z"/><path class="cls-3" d="M960.73,327.21l30.63-15.5.24,281.43-28.82-6.59Q961.76,456.88,960.73,327.21Z"/><polygon class="cls-3" points="1017.92 338.49 1021.77 338.84 1021.93 328.91 1018.1 327.56 1017.92 338.49"/><polygon class="cls-3" points="1012.15 337.34 1016 337.69 1016.16 327.76 1012.33 326.42 1012.15 337.34"/><polygon class="cls-3" points="1006.38 336.19 1010.24 336.55 1010.4 326.62 1006.56 325.27 1006.38 336.19"/><polygon class="cls-3" points="1000.62 335.05 1004.47 335.4 1004.63 325.47 1000.8 324.13 1000.62 335.05"/><polygon class="cls-3" points="1017.65 354.68 1021.51 355.03 1021.67 345.1 1017.83 343.75 1017.65 354.68"/><polygon class="cls-3" points="1011.89 353.53 1015.74 353.88 1015.9 343.95 1012.07 342.61 1011.89 353.53"/><polygon class="cls-3" points="999.63 395.55 1003.49 395.9 1003.65 385.97 999.81 384.62 999.63 395.55"/><polygon class="cls-3" points="993.87 394.4 997.72 394.75 997.88 384.82 994.05 383.48 993.87 394.4"/><polygon class="cls-3" points="1011.18 396.99 1015.03 397.34 1015.2 387.41 1011.36 386.06 1011.18 396.99"/><polygon class="cls-3" points="1005.41 395.84 1009.27 396.19 1009.43 386.26 1005.59 384.92 1005.41 395.84"/><polygon class="cls-3" points="1011.91 411.52 1015.76 411.87 1015.92 401.94 1012.09 400.6 1011.91 411.52"/><polygon class="cls-3" points="1006.14 410.37 1009.99 410.73 1010.16 400.79 1006.32 399.45 1006.14 410.37"/><polygon class="cls-3" points="999.4 410.03 1003.25 410.38 1003.41 400.45 999.58 399.11 999.4 410.03"/><polygon class="cls-3" points="993.63 408.88 997.48 409.24 997.65 399.31 993.81 397.96 993.63 408.88"/><polygon class="cls-3" points="999.16 424.52 1003.01 424.87 1003.18 414.94 999.34 413.59 999.16 424.52"/><polygon class="cls-3" points="993.4 423.37 997.25 423.72 997.41 413.79 993.58 412.45 993.4 423.37"/><polygon class="cls-3" points="998.92 380.16 1002.77 380.51 1002.93 370.58 999.1 369.24 998.92 380.16"/><polygon class="cls-3" points="993.64 379.04 997.49 379.39 997.65 369.46 993.81 368.12 993.64 379.04"/><polygon class="cls-4" points="983.32 379.15 979.3 379.26 979.33 369.33 983.35 368.22 983.32 379.15"/><polygon class="cls-4" points="989.35 378.36 985.33 378.47 985.36 368.54 989.38 367.43 989.35 378.36"/><polygon class="cls-4" points="977.29 379.09 973.27 379.2 973.3 369.27 977.32 368.16 977.29 379.09"/><polygon class="cls-4" points="970.21 394.36 966.19 394.48 966.22 384.54 970.24 383.44 970.21 394.36"/><polygon class="cls-4" points="982.52 407.78 978.5 407.89 978.53 397.96 982.56 396.85 982.52 407.78"/><polygon class="cls-4" points="976.24 393.57 972.22 393.68 972.25 383.75 976.27 382.64 976.24 393.57"/><polygon class="cls-4" points="983.27 393.64 979.25 393.75 979.28 383.82 983.31 382.71 983.27 393.64"/><polygon class="cls-4" points="989.3 392.85 985.28 392.96 985.32 383.03 989.34 381.92 989.3 392.85"/><polygon class="cls-4" points="984.37 363.81 980.35 363.93 980.38 354 984.41 352.89 984.37 363.81"/><polygon class="cls-4" points="989.9 363.02 985.88 363.13 985.91 353.2 989.94 352.09 989.9 363.02"/><polygon class="cls-4" points="983.42 461.87 979.4 461.99 979.43 452.05 983.45 450.95 983.42 461.87"/><polygon class="cls-4" points="989.45 461.08 985.43 461.19 985.46 451.26 989.49 450.15 989.45 461.08"/><polygon class="cls-4" points="977.39 461.81 973.37 461.93 973.4 451.99 977.43 450.89 977.39 461.81"/><polygon class="cls-4" points="970.31 477.09 966.29 477.2 966.32 467.27 970.34 466.16 970.31 477.09"/><polygon class="cls-4" points="970.09 490.72 966.07 490.83 966.1 480.9 970.12 479.79 970.09 490.72"/><polygon class="cls-4" points="970.53 463.45 966.51 463.57 966.54 453.63 970.57 452.53 970.53 463.45"/><polygon class="cls-4" points="976.34 476.29 972.32 476.41 972.35 466.47 976.38 465.37 976.34 476.29"/><polygon class="cls-4" points="983.37 476.36 979.35 476.48 979.39 466.54 983.41 465.44 983.37 476.36"/><polygon class="cls-4" points="989.4 475.57 985.38 475.69 985.42 465.75 989.44 464.64 989.4 475.57"/><polygon class="cls-4" points="978.68 447.1 974.66 447.21 974.69 437.28 978.71 436.17 978.68 447.1"/><path class="cls-5" d="M140.75,514.14c5.47-8.82,18.49,1.73,66.57-18.63,5.82-2.47,9.1-20.19,18.43-24.13l12-23.32,36-20.41,68,1.94c.41-6.5,2.13-15.54,9-20.4,6-4.27,12.86-3.11,24-2.92,16.1.28,16.95-1.87,36-2.91,32.2-1.76,66.52,2.38,71,2.91,99,11.66,250.26-22,417,36a578.14,578.14,0,0,1,55,22.35q2,12.15,4,24.29a83.28,83.28,0,0,1,32,5.83c5.21,2.08,12.71,5.07,20,11.67,10.11,9.13,9.94,16.25,19,29.15,7.33,10.42,12.79,13.37,21,21.38,3.94,3.84,34.33,34,34,61.22-.07,6.17-1.88,25-46,56.37-50,35.53-103.06,50.53-150,59.28-67,12.48-119.67,11.87-132,11.66-212.93-3.61-319.39-5.41-431-46.65,0,0-159.68-59-185-142.85C137.14,547.28,131.59,528.9,140.75,514.14Z"/><path class="cls-6" d="M719.38,650c-.27-2-2.36-2.46-3.37-5.12-.32-.83-1.08-2.81-.15-3.45,1.89-1.3,7.65,5.06,15.24,4.29.36,0,2.35-.7,6.3-2,8.55-2.87,10.83-3.72,11.71-3s0,2.38-.73,3.82c-2,4-5,4.76-4.69,6.43.29,1.51,2.9,1.57,7.92,4.17,1.07.55,7.54,3.9,6.88,5.36s-7.45.55-8.06.47c-6.93-.87-9.94-3.37-12.16-2.14-.56.31-.8.71-1.61,3.81-1.72,6.58-1.69,8.82-3.07,9.17s-3.19-1.1-4.11-2.38c-1.59-2.22-.24-4.08-1.75-8.46-.41-1.18-.73-1.68-1.32-2-1.38-.8-3.22-.17-6.45.59-4.81,1.15-8.74,2.08-9.67,1.08-.75-.82.72-2.67.88-2.86,2-2.49,4.83-1.89,6.89-4.29A4.69,4.69,0,0,0,719.38,650Z"/><path class="cls-7" d="M854.91,658.27c-3,.82-3.72,1.83-3.86,2.56-.56,2.88,6.93,7.78,9.64,6.06,1.08-.68,1.27-2.35,1.2-3.84a32,32,0,0,0,5,.58c3.57.14,6.25.24,8.67-1.28,1.94-1.22,4.56-4,3.62-6.3-.76-1.85-3.41-2.36-3.86-2.44a6.69,6.69,0,0,0-1.81-4.2c-2.72-2.82-6.92-1.91-7.11-1.86a4.65,4.65,0,0,0-2.65-2.92c-2.34-.7-4.69,1.69-5.78,2.8a11.62,11.62,0,0,0-3.14,6.41A12.1,12.1,0,0,0,854.91,658.27Z"/><circle class="cls-8" cx="550.82" cy="96.01" r="24.5"/><path class="cls-9" d="M41.4,595.64c.58-14.79,9.49-24.89,23.08-39.86C93,524.38,131.71,511.26,208,486.28c7.73-2.53,28-8.86,48.17-1,7.89,3.06,17.65,9,17.06,14.31-.55,4.83,1.93,6.41-6.9,15.94-.8.86-22,10.27-19.2,15.74,2,3.93,9.56,2.68,31.11,1,25.45-1.95,34.63-1.7,44.16,0,10.6,1.9,20.46,3.81,24.08,11.25,2.31,4.74,0,7.4,2,20.44,1.25,8,1.94,12.09,5,15.33,4.9,5.16,12.46,5.13,17.06,5.11,11.68,0,13.51-5.21,26.09-6.13,5.47-.4,12.52-.92,19.07,3.07,7.43,4.51,6.25,10,13,14.3,6.09,3.87,9.8,1.24,23.09,2.05,12.2.75,25.89,1.58,31.11,10.22,3.57,5.91,2.68,14.64-1,20.44-6.81,10.71-17.36,21.62-29.12,22.27-14.89.81-21.42-2.37-30.11,3.06-.79.5-1.34-6.07-.4-.17,1.15,7.22,8.28.08,18.47.68,12.7.75,17-2.85,38.13-8.18,21.57-5.44,32.36-8.17,45.16-6.13,7.24,1.15,10,7.54,27.24,15.63,22.64,10.61,29.79,16.65,39,19,18.19,4.62,19.73-3.61,37-3,22.54.78,22.49,21.57,54.34,35.54,16.17,7.09,43.52,8.55,76.66-4.54,18.52-7.32,30.07-16.42,46-18s28.23,20.91,53,34.81c21,11.77,23.23,12.53,23.08,14.31-.8,9.58-54.5,12.3-75.27,13.28-151.82,7.16-227.73,10.74-264.93,9.2-101.5-4.18-173.61-13.85-221.79-20.44-66.2-9.06-140.37-21.87-214.75-67.46C56.62,639.41,40.57,616.53,41.4,595.64Z"/><path class="cls-10" d="M28.26,602.62c.58-14.48,9.46-24.36,23-39,28.41-30.72,62.05-46.68,138.06-71.11,7.71-2.48,32.81-5.56,52.94,2.11,7.86,3,17.59,8.82,17,14-.54,4.73-9.2,4.69-18,14-.8.85-15.78,16.53-12.94,21.89,2,3.84,16.53,5.61,38,4,25.36-1.91,32.44-9.56,41.94-7.89,10.56,1.86,20.39,3.72,24,11,2.3,4.64,0,7.24,2,20,1.24,7.84-9,24.71-5.94,27.89,4.88,5,26.42-1,31-1,11.64,0,11.47-5.11,24-6,5.46-.4,11.48-.9,18,3,7.41,4.42,6.17,2.89,12.94,7.11,6.06,3.78,9.76,1.21,23,2,12.16.73,25.8,1.55,31,10,3.56,5.78-3.26,8.21-6.94,13.89-6.79,10.47-17.27,12.36-29,13-14.83.8-21.4,2.79-30.06,8.11-.79.48-9.94,6.23-9,12,1.15,7.07,16.85,10.41,27,11,12.66.74,17-2.78,38-8,21.5-5.33,32.25-8,45-6,7.21,1.13,15.81,5.09,33,13,22.56,10.39,22.81,12.71,32,15,18.12,4.53,24.78-2.59,42-2,22.46.77,24.26,13.34,56,27,16.11,6.94,53,22.81,86,10,18.45-7.15,18.12-16.44,34-18s30.35,6.4,55,20c20.88,11.52,23.15,12.27,23,14-.79,9.38-54.31,12-75,13-151.28,7-226.93,10.5-264,9-101.14-4.09-173-13.55-221-20-66-8.86-139.88-21.39-214-66C43.43,645.44,27.43,623.06,28.26,602.62Z"/><path class="cls-11" d="M924.26,383.75l55.06,43.75-9.9,7.66-60.63-48.67Z"/><path class="cls-11" d="M740.84,240.3l99.65,83.16L822.58,338,712.85,245.49Z"/><path class="cls-12" d="M654.63,317.22c-76.51-4.16-163.09-13.51-239.6-17.67-6,67.92-10.82,127.52-16.79,195.44,80.24,9,169.43,29.45,249.67,38.46C650.15,460.68,652.39,390,654.63,317.22Z"/><path class="cls-13" d="M726.84,246.53l100.21,76.93q-6,93.56-11.93,187.12c-59.64,7.62-108.68,15.3-168.33,22.93-3.57-73.81,4.7-137.23,1.12-211C681.72,300.65,693,268.36,726.84,246.53Z"/><path class="cls-13" d="M916.51,387.53,963,425.81l-4.59,94.09-82.26,12.17c-2-37.08,4.26-71.62,2.25-108.7C893.87,412.27,901.06,398.63,916.51,387.53Z"/><path class="cls-12" d="M773.31,516.72l108.61,14.65-3.36-110.44L777.79,410.78Q775.56,463.76,773.31,516.72Z"/><path class="cls-11" d="M380.32,298.51l268.71,27L742,243.41l-200.41-23.9Z"/><path class="cls-11" d="M767.15,419.12,884.87,436.2l40.71-51.89-87.8-15.11Z"/><polygon class="cls-14" points="476.16 405.17 428.71 397.81 434.57 328.26 479.59 334.88 476.16 405.17"/><polygon class="cls-14" points="587 418.68 539.55 411.32 545.41 341.77 590.43 348.4 587 418.68"/><polygon class="cls-14" points="809.07 465.46 792.58 462.92 794.62 438.91 810.26 441.19 809.07 465.46"/><path class="cls-15" d="M388.32,454.51c3-22-14.44-62.57-35-102,0,0-51.55-98.91-96-138-4.32-3.81-12.49-10-23-10-5.38,0-13.79,1.67-15,6-1.69,6.1,12,13.62,24,23,13.22,10.33,22.15,22.89,40,48,25.93,36.45,45.23,69.72,56,114,9,37,9,54,18,65,5.05,6.16,15,2,15,2S387,464,388.32,454.51Z"/><path class="cls-16" d="M224.14,200.92c-.51-4.58-26-11.25-48.67-1.88C149,210,137.39,238.22,130.71,254.52a145.92,145.92,0,0,0-10.24,41.81,386.24,386.24,0,0,1,34.74-47.2c11.42-13.25,17.33-20,27.27-27.14C205.34,205.61,224.59,205,224.14,200.92Z"/><path class="cls-16" d="M225.61,207.28c-2.14-4.08-28.29-1-46,16-20.69,19.85-21.18,50.36-21.46,68a146.08,146.08,0,0,0,5.71,42.66A386.6,386.6,0,0,1,179,277.3c5.81-16.5,8.84-25,15.5-35.21C209.81,218.49,227.5,210.88,225.61,207.28Z"/><path class="cls-16" d="M228.64,209.66c-2.06-2-16,3.2-22.32,15-7.35,13.74-1.13,30.7,2.46,40.49A95.18,95.18,0,0,0,221,288a214.4,214.4,0,0,1-3.57-33.36c-.26-9.91-.36-15,1.18-21.55C222.2,218,230.47,211.4,228.64,209.66Z"/><path class="cls-16" d="M224.24,209.48c2.47-1.44,1.38-16.29-8.18-25.6-11.16-10.87-29.18-9.6-39.58-8.87a95.14,95.14,0,0,0-25.38,5.44,214.46,214.46,0,0,1,33,5.82c9.6,2.5,14.51,3.81,20.39,7.11C218.05,201,222.06,210.75,224.24,209.48Z"/><path class="cls-16" d="M217.77,203.59c-3.63-2.79,1.27-26.31,18.51-39.25,20.14-15.12,48.65-9.44,65.1-6.17A151.86,151.86,0,0,1,340.76,172a345.87,345.87,0,0,0-54,2.62c-15.85,2-24,3.16-34.07,7.25C229.47,191.26,221,206.06,217.77,203.59Z"/><path class="cls-16" d="M217.73,209.53c-2.54-3.81,10.83-22.77,32.43-27.8,25.22-5.88,51.07,9.7,66,18.69a164.72,164.72,0,0,1,33.51,26.81,398.85,398.85,0,0,0-53.83-17.71c-16.27-4.07-24.64-6.11-36-6.24C233.68,203,220,212.9,217.73,209.53Z"/><path class="cls-16" d="M223.26,211.7c-.81-2.65,9.31-10.93,21.79-9.72,14.58,1.41,26.27,15.17,33,23.11a106.36,106.36,0,0,1,14.16,21.61,242,242,0,0,0-26.56-20.26c-8.22-5.39-12.46-8.13-18.61-10.35C232.91,211,224,214.05,223.26,211.7Z"/><path class="cls-16" d="M219.15,199.34c-2.07.81-6.76-7.5-4.13-18.28,3.07-12.58,14.83-23.24,21.62-29.39a108,108,0,0,1,17.88-13.12,280.8,280.8,0,0,0-18.61,23.71c-5.12,7.3-7.73,11.06-10.22,16.44C220,191.09,221,198.62,219.15,199.34Z"/><path class="cls-15" d="M330,489.14c3.14-13.49-15.13-38.35-36.67-62.51,0,0-54-60.61-100.59-84.57a52.26,52.26,0,0,0-24.09-6.13c-5.64,0-14.46,1-15.72,3.67-1.78,3.74,12.58,8.35,25.15,14.1,13.84,6.33,23.2,14,41.91,29.41,27.16,22.35,47.39,42.73,58.67,69.87,9.43,22.67,9.43,33.09,18.86,39.83,5.29,3.78,15.72,1.23,15.72,1.23S328.62,494.93,330,489.14Z"/><path class="cls-16" d="M169.55,335.62c-1.12-3.36-28.29-3.9-50.51,7.18C93.09,355.75,84.78,379.13,80,392.62A88,88,0,0,0,74.81,426a324.06,324.06,0,0,1,29.78-41.78c10.08-12,15.31-18.19,24.65-25.32C150.74,342.49,170.53,338.6,169.55,335.62Z"/><path class="cls-16" d="M171.89,340.17c-2.74-2.7-29.35,4.24-45.45,20.21-18.8,18.65-15.35,41.78-13.37,55.14a84.32,84.32,0,0,0,11.41,31.22,236.86,236.86,0,0,1,8.32-45.44c3.86-13.49,5.91-20.42,11.45-29.34C157,351.43,174.31,342.55,171.89,340.17Z"/><path class="cls-16" d="M175.33,341.43c-2.39-1.13-16.15,5.25-21.13,15.25-5.81,11.67,2.8,23.39,7.78,30.15a69.6,69.6,0,0,0,15.62,15.11,121.94,121.94,0,0,1-8-24.57c-1.55-7.44-2.32-11.26-1.57-16.49C169.74,348.85,177.44,342.42,175.33,341.43Z"/><path class="cls-16" d="M170.76,342.07c2.36-1.52-.69-12.55-11.76-17.89-12.93-6.24-31.38-2.1-42,.29a131.06,131.06,0,0,0-25.51,8.6,297.44,297.44,0,0,1,34.88-1.44c10.23.19,15.47.31,22,1.77C163.26,336.75,168.67,343.42,170.76,342.07Z"/><path class="cls-16" d="M163.32,338.77c-4.12-1.47-2.1-20.1,14-32.92,18.84-15,49-15.73,66.43-16.17a201.12,201.12,0,0,1,42.45,3.48,493.19,493.19,0,0,0-55.43,11.53c-16.11,4.35-24.36,6.62-34.25,11.49C173.8,327.39,167,340.06,163.32,338.77Z"/><path class="cls-16" d="M164,343.26c-3.12-2.43,8.24-19.11,29.9-26.73,25.29-8.9,54-1.7,70.57,2.46a174.19,174.19,0,0,1,38.07,14.33,532,532,0,0,0-57.89-3.86c-17.32-.2-26.23-.27-38,1.64C179.66,335.5,166.8,345.41,164,343.26Z"/><path class="cls-16" d="M170,343.93c-1.17-1.87,8.2-9.91,21.25-11.2,15.24-1.51,29.09,6.82,37.09,11.63a83.94,83.94,0,0,1,17.42,13.82,259.53,259.53,0,0,0-30.06-10.61c-9.18-2.62-13.91-3.94-20.55-4.53C179.9,341.68,171.07,345.57,170,343.93Z"/><path class="cls-16" d="M164.18,335.31c-2,1-7.94-4.47-6.62-13.07,1.55-10.05,12.32-20.18,18.53-26a118.26,118.26,0,0,1,16.77-13.08,244.18,244.18,0,0,0-16.16,21.21c-4.34,6.41-6.54,9.71-8.42,14.22C164,328.94,166,334.45,164.18,335.31Z"/></g></svg>
