<svg xmlns="http://www.w3.org/2000/svg" viewBox="0 0 2731 946">
  <defs>
    <style>
      .cls-1 {
        fill: #f3f2f0;
      }

      .cls-2 {
        fill: #edcaa8;
      }

      .cls-3 {
        fill: #d3e9f4;
      }

      .cls-4 {
        fill: #e9f7ff;
      }

      .cls-5 {
        fill: #ffdbb5;
      }

      .cls-6 {
        fill: #736861;
      }

      .cls-7 {
        fill: #d3b497;
      }

      .cls-8 {
        fill: #b38f81;
      }

      .cls-9 {
        fill: #ed5858;
      }

      .cls-10 {
        fill: #fcf0e0;
      }

      .cls-11 {
        fill: #f29770;
      }

      .cls-12 {
        fill: none;
      }

      .cls-13 {
        fill: #b6ddf2;
      }

      .cls-14 {
        fill: #bf8c69;
      }

      .cls-15 {
        fill: #ffbb8c;
      }

      .cls-16 {
        fill: #ffebbf;
      }

      .cls-17 {
        fill: #ba5058;
      }

      .cls-18 {
        fill: #f7931e;
      }

      .cls-19 {
        fill: #ffde94;
      }

      .cls-20 {
        fill: #defffb;
      }

      .cls-21 {
        fill: #b3f1ff;
      }

      .cls-22 {
        fill: #6b4940;
      }

      .cls-23 {
        fill: #ffa985;
      }

      .cls-24 {
        fill: #fff28c;
      }

      .cls-25 {
        fill: #997c5f;
      }

      .cls-26 {
        fill: #569175;
      }

      .cls-27 {
        fill: #ddcab4;
      }

      .cls-28 {
        fill: #c9baab;
      }
    </style>
  </defs>
  <g id="Layer_7" data-name="Layer 7">
    <g>
      <rect class="cls-1" x="-2.14" y="1" width="2731" height="946"/>
      <g>
        <g>
          <path class="cls-2" d="M711.85,521c2.44,21.61-7.65,34.48,1,61,11.56,35.38,13.48,45,11.16,62-3.38,24.72-40.6,42.78-94.33,30-34.35-8.17-66.7-29.61-69-62-1.31-18.65.95-28.57,12.17-53,29.25-63.7-18.36-118.54,2-135C599.76,403.94,704.7,457.77,711.85,521Z"/>
          <path class="cls-3" d="M861,716c1.17-24.65-19.37-45.2-32.46-56a1009.29,1009.29,0,0,0-110.55-30c-76.36-16.09-122-27.61-171.42-9-69,26-75.06,34-132.87,59-19.8,8.56-43.11,47-43.62,55-1.84,28.89,163.45,57.77,187.65,62,100.57,17.57,151.85,25.81,200.83-1C779.85,784.32,858.75,762.3,861,716Z"/>
          <g>
            <path class="cls-4" d="M669.25,613q-9.63,43.5-19.27,87l-78.1-44-31.45-39,32.46-58a148.78,148.78,0,0,0,31.44,29A153.48,153.48,0,0,0,669.25,613Z"/>
            <path class="cls-4" d="M695.62,689l-26.37-76c11.86,5.31,25.55,3.29,34.49-5,10.87-10.09,9.32-24.44,9.12-26q14.21,33,28.4,66l-14.2,23Z"/>
          </g>
          <path class="cls-5" d="M744.84,534c-38.3,11.51-65.22,4.37-77.33,0C664,532.72,665,532.84,608,493.32c-24.24-16.83-32.49-22.46-36.54-34.6-3.89-11.65-1.17-21.08-9.35-30.27-6.53-7.35-11.56-5-20.39-11.25-15.09-10.6-24.88-34.53-18.7-51,4.83-12.88,15.84-11.68,21.25-25.08,5.75-14.26-1.56-28.35-5.1-38.92-14.48-43.24,12.74-91.36,14.44-94.28,27.56-47.29,104.31-64.41,162.31-42.38C751.88,179.15,783.11,213.67,790,256c3,18.39,5.53,16.5-.12,65.2-5.11,44-.86,55-5.1,102.06a655,655,0,0,1-10.2,70.06Z"/>
          <path class="cls-6" d="M763,224c-21.12,13.39-52.63,11.18-65,14-18,4.1-11.48-.11-41.94,5-39.16,6.57-46.59,12.94-49.7,16-9,8.89-15.61,23.24-16.23,37-.74,16.39-1,36-1,36-.06,4.09-.08,6.75-2,9-5.87,6.77-18.79-2.23-34.49,2-14.72,4-16,15.14-24.34,15-12.7-.21-3.14-28.66-7.1-52-8.77-51.75,10.12-84,12.17-87,21.91-32.35,40.27-53.69,65.93-64,13.8-5.55,37.65-5.13,60.86-7,16-1.3,68.07-5.73,106.5,29,8,7.22,15.48,16.5,24.35,45,8.33,33.36,6.63,52.7,3,54C789.83,277.51,780,256,763,224Z"/>
          <path class="cls-7" d="M699.86,481c21.41,5.81,37.88-3.76,38.14-1,.17,1.86-7.2,6.57-13.55,8.93-4.61,1.71-14.14,4.21-26.6-1-14.28-6-25.42-19.16-25.08-20.82S683.5,476.6,699.86,481Z"/>
        </g>
        <g>
          <g>
            <path class="cls-8" d="M337.5,703.5c-25.54-8.35-52.23-19.89-94-65-81.07-87.55-61.65-214.78-60-231,2.6-25.46,30.7-84.77,92-139,26-23,110.84-66.41,196-14,65,40,70,66.52,83,117,15.1,58.74,4.58,86.63-4,114-16.55,52.78-42,84-56,137-3.19,12.08-4,52,14,88,17.14,34.28,89.72,64.53,100,65-50.65,5.85-81-.93-161-16C398.19,750.21,371.89,717.42,337.5,703.5Z"/>
            <path class="cls-2" d="M299.5,517.5a699.93,699.93,0,0,1-8,89c-7.23,46.82-10.84,70.23-25,92-26.4,40.59-70.08,57.11-83,62-43.09,16.3-71.35,8.88-75,21-5.78,19.19,60,54.37,65,57,32,16.89,97.35,44.86,194,43,17-.33,130.07-3.77,214-68,28.32-21.67,28.36-31.17,27-35-4.38-12.32-37.23-5.29-79-11-21.37-2.92-92.35-12.63-125-60-36.07-52.34-7.57-124.83-3-136Z"/>
            <path class="cls-5" d="M475.5,328.5c-17,17.6-63.37,23.27-96,43-37,22.36-82.54,34.33-108,41q-2.5,9.5-5,19c-13.93.43-26.18,7.77-31,19-6.45,15,3.48,29.76,7,35a50.77,50.77,0,0,0,22,18c10.56,22.64,27.18,73.93,35.5,83.5,36.49,42,75.49,72.87,110,72,15.23-.38,46.59-45.54,49-49,16-23,25.89-46.78,28-56,11-48,4-28.88,16.5-78.5,4.44-17.63,10.66-49.21,15-60-11.16-10.4-14.23-14.19-21-36C488.5,350.5,480.4,345.18,475.5,328.5Z"/>
          </g>
          <path class="cls-9" d="M376,562.83c3.69,6.34,15.28,24.55,34.12,29.15,11.85,2.89,20.14-1.18,22-2.16,3.93-2.05,10.13-5.29,10.8-11.88.52-5.13-2.41-11.24-6.05-12.42-4.06-1.31-6.54,4.32-10.79,2.7-2.91-1.1-2.91-4.17-6.05-6.47-4.21-3.1-9.23-1.29-11.66-.54C402.46,563,392.81,564.29,376,562.83Z"/>
          <circle class="cls-10" cx="260.5" cy="507.5" r="13.5"/>
          <circle class="cls-10" cx="259.5" cy="734.5" r="8.5"/>
          <circle class="cls-10" cx="248.5" cy="722.5" r="8.5"/>
          <circle class="cls-10" cx="269.5" cy="745.5" r="8.5"/>
          <circle class="cls-10" cx="280.5" cy="753.5" r="8.5"/>
          <circle class="cls-10" cx="295.5" cy="761.5" r="8.5"/>
          <circle class="cls-10" cx="309.5" cy="768.5" r="8.5"/>
          <circle class="cls-10" cx="326.49" cy="770.54" r="8.5"/>
          <circle class="cls-10" cx="343.51" cy="773.46" r="8.5"/>
          <circle class="cls-10" cx="358.5" cy="771.5" r="8.5"/>
          <circle class="cls-10" cx="413.5" cy="720.5" r="8.5"/>
          <circle class="cls-10" cx="404.5" cy="734.5" r="8.5"/>
          <circle class="cls-10" cx="394.5" cy="747.5" r="8.5"/>
          <circle class="cls-10" cx="384.5" cy="756.5" r="8.5"/>
          <circle class="cls-10" cx="372.5" cy="765.5" r="8.5"/>
          <g>
            <path class="cls-11" d="M192.27,751.69c-22.33,4.75-29,10.74-31.52,13.22-3,3-6.77,6.86-6.5,11.76.46,8.32,11.93,15.09,19.11,16,13.36,1.68,15.47.85,27.49-2,10.39-2.47,20.49-5,30.27-13,4.93-4,13.27-10.81,11.76-17.41S230.8,751,225.61,749.75C214.73,747,206.16,748.74,192.27,751.69Z"/>
            <g>
              <path class="cls-11" d="M148.59,660.36c-2.19,0-17.75-.48-31.88-9.41C98,639.11,92.46,619.1,86.35,595.53c-6.23-24-6.64-45.08-7.2-86.28-.21-14.95-.06-27.25.1-35.43a61.21,61.21,0,0,1,33.07-22.12,62.1,62.1,0,0,1,40.06,3c.66,1.5,7.3,16.84,14,32.24,17.08,39.49,25.76,59.74,32.92,84.75,8.39,29.31,7.49,39,5.48,46.53-1.32,4.93-6.51,23.24-24.71,34.26C166.79,660.51,153.64,660.45,148.59,660.36Z"/>
              <path class="cls-11" d="M190.25,627.47c1.39,5.11-9.82,7.83-14.5,20.33-1.9,5.07-2.43,10.52,1,26.58a360.93,360.93,0,0,0,9.45,35.33c6.68,30.74,11.17,44.9,14.3,50.34.49.84,2.26,3.76,1.14,6.1-1.39,2.91-6.52,3.43-10.36,3.44-1.28-5.94-3.1-14-5.5-23.58-5-19.77-6.44-22-11.85-41.68-9.46-34.4-9.92-45.44-19.43-49.51-3.72-1.59-8.41-1.94-14.93-6.4-4-2.72-9.87-6.73-9.78-11.31.16-7.68,17.59-13.34,29.12-15C171.25,620.3,188.58,621.38,190.25,627.47Z"/>
              <path class="cls-5" d="M90.44,779.82c-2.63-23.5-5.43-48.51-14.56-80.61-8.69-30.54-10-41.59-12.71-63.62-1.91-15.66,2.45-14.54,5.64-38.9a42.05,42.05,0,0,1,6.75-18.2c5.31-8.29,14.25-14.27,20.67-23.77,12.6-18.64,2.63-8,26.21-25.3,13.33-9.78,20.33-10.27,35.75-16.85,3-1.29,13.82-2,15.61.38,2.89,3.87,5,.95-2.76,11.26-3.9,5.16-18,7.88-28.72,14.33-10.33,6.22-9.28,7.22-16.59,15.06-.85.92-4.61,4.77-11.09,17.64-1.12,2.23,3.55.4,18.56-14.44a159.37,159.37,0,0,1,16.74-14.53,68.33,68.33,0,0,1,34.87-13.67c3.08-.31,4.4,5.4,4.52,7.51.18,3.4-6,6.26-5.5,7.93.32,1.11,4.87-.32,10.08,1.89.8.34,3.64,3.49,3.81,7.12.11,2.31.51,2.77-4.55,7.09-3.15,2.7-10.94,9.36-10,10.93.39.65,4.43-.31,12.48-2.27,7.81-1.9,9.75-2.38,11-1.27,1.91,1.75.89,6.38-.85,9.58-3.64,6.65-10,6.31-17,11.67-4.69,3.59-5.61,6.63-11.64,17.79-9.06,16.75-12.58,20.24-15.72,26.5-13.52,27,2.51,43.71-3.14,85.48-1.37,10.15.16,11.05-2.94,25.32-1.21,5.56-10.84,16.38-12.41,25.59-2,12,3,30.63,12.4,52,17.29,39.2,13,37,11.2,43.61-3.58,13.26-14.23,23.06-28.88,24.28-15.14,1.26-24.81-.52-29.37-4.76C87.77,865.54,97.28,841.07,90.44,779.82Z"/>
            </g>
          </g>
        </g>
      </g>
      <g>
        <line class="cls-12" x1="2016" y1="643" x2="2032" y2="447"/>
        <path class="cls-13" d="M1753,333.2l187-1,149,1c-10-11.09-27.24-26.75-52-33-37.37-9.44-70.43,8-81-7-7.56-10.72,5.65-24.87-3-35-7.3-8.55-23.5-6.39-49-3-27.87,3.71-32.77,8.87-45,5-15.94-5-14.7-16-29-20-18.16-5-41.86,6.74-54,23-12.29,16.47-7.57,30.66-20,37-9.67,4.94-16.31-1.72-29,1-9.68,2.08-21.61,9.36-33,31Z"/>
        <g>
          <path class="cls-13" d="M2497.49,263.2l-172.8-1-137.68,1c9.27-11.09,25.17-26.75,48-33,34.54-9.44,65.08,8,74.85-7,7-10.72-5.22-24.87,2.77-35,6.75-8.55,21.71-6.39,45.28-3,25.75,3.71,30.28,8.87,41.58,5,14.73-5,13.59-16,26.8-20,16.78-5,38.68,6.74,49.9,23,11.35,16.47,7,30.66,18.48,37,8.94,4.94,15.08-1.72,26.8,1,8.94,2.08,20,9.36,30.49,31Z"/>
          <path class="cls-13" d="M2355.51,298.2l141.09-.65,112.41.65c-7.57-7.18-20.55-17.32-39.23-21.37-28.2-6.12-53.13,5.17-61.11-4.54-5.71-6.94,4.26-16.11-2.27-22.67-5.5-5.54-17.72-4.14-37-1.94-21,2.4-24.73,5.74-34,3.24-12-3.27-11.09-10.4-21.88-13-13.71-3.25-31.59,4.36-40.74,14.9s-5.72,19.86-15.09,24c-7.3,3.19-12.31-1.12-21.88.64-7.31,1.35-16.31,6.06-24.9,20.08Z"/>
        </g>
        <g>
          <path class="cls-14" d="M2277.52,557.52q-.76-170.41-1.52-340.84c10.39-3.32,21.27-6.4,32.61-9.12q10.86-2.61,21.24-4.56-4.18,180.11-8.35,360.22Z"/>
          <path class="cls-15" d="M2376.87,225.8,2329.09,203l-7.59,376.18,45.51-6.84Q2371.93,399.07,2376.87,225.8Z"/>
          <polygon class="cls-15" points="2286.62 236.99 2280.55 237.2 2280.55 223.91 2286.62 222.38 2286.62 236.99"/>
          <polygon class="cls-15" points="2295.72 235.85 2289.65 236.06 2289.65 222.77 2295.72 221.24 2295.72 235.85"/>
          <polygon class="cls-15" points="2304.82 234.71 2298.75 234.92 2298.75 221.63 2304.82 220.1 2304.82 234.71"/>
          <polygon class="cls-15" points="2313.92 233.57 2307.85 233.78 2307.85 220.49 2313.92 218.96 2313.92 233.57"/>
          <polygon class="cls-15" points="2286.62 258.65 2280.55 258.86 2280.55 245.57 2286.62 244.04 2286.62 258.65"/>
          <polygon class="cls-15" points="2295.72 257.51 2289.65 257.72 2289.65 244.43 2295.72 242.9 2295.72 257.51"/>
          <polygon class="cls-15" points="2313.92 314.51 2307.85 314.71 2307.85 301.43 2313.92 299.89 2313.92 314.51"/>
          <polygon class="cls-15" points="2323.02 313.37 2316.95 313.57 2316.95 300.29 2323.02 298.75 2323.02 313.37"/>
          <polygon class="cls-15" points="2295.72 315.65 2289.65 315.85 2289.65 302.57 2295.72 301.03 2295.72 315.65"/>
          <polygon class="cls-15" points="2304.82 314.51 2298.75 314.71 2298.75 301.43 2304.82 299.89 2304.82 314.51"/>
          <polygon class="cls-15" points="2294.2 335.03 2288.13 335.23 2288.13 321.95 2294.2 320.41 2294.2 335.03"/>
          <polygon class="cls-15" points="2303.3 333.89 2297.24 334.09 2297.24 320.81 2303.3 319.27 2303.3 333.89"/>
          <polygon class="cls-15" points="2313.92 333.89 2307.85 334.09 2307.85 320.81 2313.92 319.27 2313.92 333.89"/>
          <polygon class="cls-15" points="2323.02 332.75 2316.95 332.95 2316.95 319.67 2323.02 318.13 2323.02 332.75"/>
          <polygon class="cls-15" points="2313.92 353.26 2307.85 353.47 2307.85 340.19 2313.92 338.65 2313.92 353.26"/>
          <polygon class="cls-15" points="2323.02 352.13 2316.95 352.33 2316.95 339.05 2323.02 337.51 2323.02 352.13"/>
          <polygon class="cls-15" points="2315.44 293.99 2309.37 294.19 2309.37 280.91 2315.44 279.38 2315.44 293.99"/>
          <polygon class="cls-15" points="2323.78 292.85 2317.71 293.06 2317.71 279.77 2323.78 278.24 2323.78 292.85"/>
          <polygon class="cls-14" points="2340.01 293.7 2346.33 294.12 2346.53 280.84 2340.23 279.09 2340.01 293.7"/>
          <polygon class="cls-14" points="2330.54 292.23 2336.86 292.65 2337.06 279.37 2330.76 277.62 2330.54 292.23"/>
          <polygon class="cls-14" points="2349.49 294.03 2355.81 294.45 2356.02 281.17 2349.72 279.42 2349.49 294.03"/>
          <polygon class="cls-14" points="2360.24 314.93 2366.56 315.35 2366.77 302.07 2360.47 300.32 2360.24 314.93"/>
          <polygon class="cls-14" points="2340.53 332.02 2346.84 332.45 2347.05 319.17 2340.75 317.42 2340.53 332.02"/>
          <polygon class="cls-14" points="2350.78 313.46 2357.1 313.88 2357.3 300.6 2351 298.85 2350.78 313.46"/>
          <polygon class="cls-14" points="2339.71 313.07 2346.03 313.5 2346.23 300.21 2339.93 298.46 2339.71 313.07"/>
          <polygon class="cls-14" points="2330.24 311.6 2336.56 312.03 2336.77 298.75 2330.47 296.99 2330.24 311.6"/>
          <polygon class="cls-14" points="2338.74 273.13 2345.06 273.56 2345.27 260.27 2338.97 258.52 2338.74 273.13"/>
          <polygon class="cls-14" points="2330.06 271.69 2336.39 272.11 2336.59 258.83 2330.29 257.08 2330.06 271.69"/>
          <polygon class="cls-14" points="2337.73 404.27 2344.05 404.7 2344.26 391.42 2337.96 389.66 2337.73 404.27"/>
          <polygon class="cls-14" points="2328.26 402.8 2334.58 403.23 2334.79 389.94 2328.49 388.19 2328.26 402.8"/>
          <polygon class="cls-14" points="2347.22 404.6 2353.54 405.03 2353.74 391.75 2347.44 389.99 2347.22 404.6"/>
          <polygon class="cls-14" points="2357.97 425.5 2364.29 425.93 2364.49 412.64 2358.19 410.89 2357.97 425.5"/>
          <polygon class="cls-14" points="2357.97 443.74 2364.29 444.16 2364.49 430.88 2358.19 429.13 2357.97 443.74"/>
          <polygon class="cls-14" points="2357.97 407.26 2364.29 407.69 2364.49 394.4 2358.19 392.65 2357.97 407.26"/>
          <polygon class="cls-14" points="2348.5 424.03 2354.82 424.46 2355.03 411.17 2348.72 409.42 2348.5 424.03"/>
          <polygon class="cls-14" points="2337.43 423.64 2343.75 424.07 2343.96 410.79 2337.66 409.04 2337.43 423.64"/>
          <polygon class="cls-14" points="2327.97 422.18 2334.29 422.6 2334.49 409.32 2328.19 407.57 2327.97 422.18"/>
          <polygon class="cls-14" points="2345.57 384.84 2351.89 385.27 2352.09 371.99 2345.79 370.23 2345.57 384.84"/>
        </g>
        <g>
          <path class="cls-14" d="M2394.32,566.39l-15.48-298.61c13.55-3.53,27.76-6.87,42.59-9.93q14.21-2.93,27.79-5.26l3.27,316.18Z"/>
          <path class="cls-15" d="M2512.06,269.77l-63.84-17.13q2.46,165,4.9,330.11l59.67-8.7Q2512.43,421.91,2512.06,269.77Z"/>
          <polygon class="cls-15" points="2393.63 284.95 2385.64 285.49 2385.12 273.85 2393.05 272.14 2393.63 284.95"/>
          <polygon class="cls-15" points="2405.57 283.41 2397.59 283.95 2397.06 272.31 2404.99 270.61 2405.57 283.41"/>
          <polygon class="cls-15" points="2417.51 281.87 2409.53 282.41 2409 270.77 2416.93 269.06 2417.51 281.87"/>
          <polygon class="cls-15" points="2429.45 280.33 2421.47 280.87 2420.94 269.23 2428.88 267.52 2429.45 280.33"/>
          <polygon class="cls-15" points="2394.48 303.93 2386.5 304.47 2385.97 292.83 2393.91 291.13 2394.48 303.93"/>
          <polygon class="cls-15" points="2406.43 302.39 2398.44 302.93 2397.92 291.29 2405.85 289.58 2406.43 302.39"/>
          <polygon class="cls-15" points="2432.66 351.26 2424.67 351.8 2424.15 340.16 2432.08 338.45 2432.66 351.26"/>
          <polygon class="cls-15" points="2444.6 349.72 2436.62 350.26 2436.09 338.62 2444.02 336.91 2444.6 349.72"/>
          <polygon class="cls-15" points="2408.73 353.34 2400.74 353.88 2400.22 342.24 2408.15 340.53 2408.73 353.34"/>
          <polygon class="cls-15" points="2420.67 351.8 2412.69 352.34 2412.16 340.7 2420.09 338.99 2420.67 351.8"/>
          <polygon class="cls-15" points="2407.5 370.41 2399.51 370.95 2398.99 359.31 2406.92 357.61 2407.5 370.41"/>
          <polygon class="cls-15" points="2419.44 368.87 2411.45 369.41 2410.93 357.77 2418.86 356.07 2419.44 368.87"/>
          <polygon class="cls-15" points="2433.42 368.24 2425.44 368.78 2424.91 357.14 2432.85 355.43 2433.42 368.24"/>
          <polygon class="cls-15" points="2445.37 366.7 2437.38 367.24 2436.86 355.6 2444.79 353.89 2445.37 366.7"/>
          <polygon class="cls-15" points="2434.19 385.22 2426.21 385.76 2425.68 374.12 2433.61 372.42 2434.19 385.22"/>
          <polygon class="cls-15" points="2446.13 383.68 2438.15 384.22 2437.63 372.58 2445.56 370.88 2446.13 383.68"/>
          <polygon class="cls-15" points="2433.84 333.19 2425.86 333.73 2425.33 322.08 2433.26 320.38 2433.84 333.19"/>
          <polygon class="cls-15" points="2444.79 331.69 2436.8 332.23 2436.28 320.59 2444.21 318.88 2444.79 331.69"/>
          <polygon class="cls-14" points="2466.2 331.47 2474.54 331.47 2474.28 319.81 2465.91 318.65 2466.2 331.47"/>
          <polygon class="cls-14" points="2453.67 330.75 2462.01 330.74 2461.75 319.09 2453.39 317.93 2453.67 330.75"/>
          <polygon class="cls-14" points="2478.7 331.19 2487.05 331.19 2486.79 319.54 2478.42 318.38 2478.7 331.19"/>
          <polygon class="cls-14" points="2493.69 348.87 2502.04 348.87 2501.78 337.21 2493.41 336.05 2493.69 348.87"/>
          <polygon class="cls-14" points="2468.4 365.03 2476.74 365.02 2476.48 353.37 2468.11 352.21 2468.4 365.03"/>
          <polygon class="cls-14" points="2481.16 348.14 2489.51 348.14 2489.25 336.49 2480.88 335.33 2481.16 348.14"/>
          <polygon class="cls-14" points="2466.57 348.46 2474.91 348.46 2474.66 336.81 2466.29 335.65 2466.57 348.46"/>
          <polygon class="cls-14" points="2454.04 347.74 2462.38 347.74 2462.13 336.09 2453.76 334.93 2454.04 347.74"/>
          <polygon class="cls-14" points="2463.72 313.52 2472.06 313.52 2471.8 301.86 2463.43 300.7 2463.72 313.52"/>
          <polygon class="cls-14" points="2452.23 312.77 2460.57 312.77 2460.32 301.12 2451.95 299.96 2452.23 312.77"/>
          <polygon class="cls-14" points="2467.58 428.51 2475.92 428.5 2475.66 416.85 2467.3 415.69 2467.58 428.51"/>
          <polygon class="cls-14" points="2455.05 427.78 2463.39 427.78 2463.13 416.13 2454.76 414.97 2455.05 427.78"/>
          <polygon class="cls-14" points="2480.08 428.23 2488.43 428.23 2488.17 416.57 2479.8 415.42 2480.08 428.23"/>
          <polygon class="cls-14" points="2495.07 445.9 2503.41 445.9 2503.16 434.25 2494.79 433.09 2495.07 445.9"/>
          <polygon class="cls-14" points="2495.8 461.89 2504.14 461.89 2503.88 450.23 2495.51 449.07 2495.8 461.89"/>
          <polygon class="cls-14" points="2494.35 429.92 2502.69 429.92 2502.44 418.27 2494.07 417.11 2494.35 429.92"/>
          <polygon class="cls-14" points="2482.54 445.18 2490.89 445.18 2490.63 433.52 2482.26 432.36 2482.54 445.18"/>
          <polygon class="cls-14" points="2467.95 445.5 2476.29 445.5 2476.04 433.85 2467.67 432.69 2467.95 445.5"/>
          <polygon class="cls-14" points="2455.42 444.78 2463.76 444.77 2463.51 433.12 2455.14 431.96 2455.42 444.78"/>
          <polygon class="cls-14" points="2477.13 411.01 2485.47 411.01 2485.22 399.36 2476.85 398.2 2477.13 411.01"/>
        </g>
        <g>
          <path class="cls-15" d="M2571.48,616.86q2.55-127.35,5.11-254.72c-6.57-2.82-13.44-5.47-20.61-7.87q-6.86-2.29-13.43-4.09.47,134.76.92,269.52Z"/>
          <path class="cls-14" d="M2512.41,365.7,2543,350.2q.12,140.71.25,281.43l-28.82-6.58Q2513.44,495.38,2512.41,365.7Z"/>
          <polygon class="cls-14" points="2569.59 376.98 2573.45 377.33 2573.61 367.4 2569.77 366.06 2569.59 376.98"/>
          <polygon class="cls-14" points="2563.83 375.84 2567.68 376.19 2567.84 366.26 2564.01 364.91 2563.83 375.84"/>
          <polygon class="cls-14" points="2558.06 374.69 2561.91 375.04 2562.07 365.11 2558.24 363.77 2558.06 374.69"/>
          <polygon class="cls-14" points="2552.3 373.54 2556.15 373.89 2556.31 363.96 2552.47 362.62 2552.3 373.54"/>
          <polygon class="cls-14" points="2569.33 393.17 2573.18 393.52 2573.34 383.59 2569.51 382.25 2569.33 393.17"/>
          <polygon class="cls-14" points="2563.57 392.03 2567.42 392.38 2567.58 382.44 2563.74 381.1 2563.57 392.03"/>
          <polygon class="cls-14" points="2551.31 434.04 2555.16 434.39 2555.32 424.46 2551.49 423.12 2551.31 434.04"/>
          <polygon class="cls-14" points="2545.55 432.89 2549.4 433.25 2549.56 423.31 2545.72 421.97 2545.55 432.89"/>
          <polygon class="cls-14" points="2562.86 435.48 2566.71 435.83 2566.87 425.9 2563.04 424.56 2562.86 435.48"/>
          <polygon class="cls-14" points="2557.09 434.33 2560.94 434.69 2561.1 424.75 2557.27 423.41 2557.09 434.33"/>
          <polygon class="cls-14" points="2563.59 450.01 2567.44 450.37 2567.6 440.44 2563.76 439.09 2563.59 450.01"/>
          <polygon class="cls-14" points="2557.82 448.87 2561.67 449.22 2561.83 439.29 2558 437.95 2557.82 448.87"/>
          <polygon class="cls-14" points="2551.08 448.53 2554.93 448.88 2555.09 438.95 2551.25 437.6 2551.08 448.53"/>
          <polygon class="cls-14" points="2545.31 447.38 2549.16 447.73 2549.32 437.8 2545.49 436.46 2545.31 447.38"/>
          <polygon class="cls-14" points="2550.84 463.01 2554.69 463.36 2554.85 453.43 2551.02 452.09 2550.84 463.01"/>
          <polygon class="cls-14" points="2545.07 461.87 2548.93 462.22 2549.09 452.29 2545.25 450.94 2545.07 461.87"/>
          <polygon class="cls-14" points="2550.6 418.65 2554.45 419 2554.61 409.07 2550.78 407.73 2550.6 418.65"/>
          <polygon class="cls-14" points="2545.31 417.53 2549.16 417.88 2549.32 407.95 2545.49 406.61 2545.31 417.53"/>
          <polygon class="cls-15" points="2534.99 417.64 2530.97 417.76 2531.01 407.82 2535.03 406.72 2534.99 417.64"/>
          <polygon class="cls-15" points="2541.03 416.85 2537.01 416.97 2537.04 407.03 2541.06 405.92 2541.03 416.85"/>
          <polygon class="cls-15" points="2528.97 417.58 2524.95 417.7 2524.98 407.76 2529 406.66 2528.97 417.58"/>
          <polygon class="cls-15" points="2521.88 432.86 2517.86 432.97 2517.89 423.04 2521.92 421.93 2521.88 432.86"/>
          <polygon class="cls-15" points="2534.2 446.27 2530.18 446.39 2530.21 436.45 2534.24 435.35 2534.2 446.27"/>
          <polygon class="cls-15" points="2527.91 432.06 2523.89 432.18 2523.93 422.24 2527.95 421.14 2527.91 432.06"/>
          <polygon class="cls-15" points="2534.95 432.13 2530.93 432.25 2530.96 422.31 2534.98 421.21 2534.95 432.13"/>
          <polygon class="cls-15" points="2540.98 431.34 2536.96 431.46 2536.99 421.52 2541.01 420.42 2540.98 431.34"/>
          <polygon class="cls-15" points="2536.05 402.31 2532.03 402.43 2532.06 392.49 2536.08 391.38 2536.05 402.31"/>
          <polygon class="cls-15" points="2541.58 401.51 2537.56 401.63 2537.59 391.69 2541.61 390.59 2541.58 401.51"/>
          <polygon class="cls-15" points="2535.1 500.37 2531.08 500.48 2531.11 490.55 2535.13 489.44 2535.1 500.37"/>
          <polygon class="cls-15" points="2541.13 499.58 2537.11 499.69 2537.14 489.75 2541.16 488.65 2541.13 499.58"/>
          <polygon class="cls-15" points="2529.07 500.31 2525.05 500.42 2525.08 490.49 2529.1 489.38 2529.07 500.31"/>
          <polygon class="cls-15" points="2521.99 515.58 2517.97 515.7 2518 505.76 2522.02 504.65 2521.99 515.58"/>
          <polygon class="cls-15" points="2521.76 529.21 2517.74 529.33 2517.78 519.39 2521.8 518.29 2521.76 529.21"/>
          <polygon class="cls-15" points="2522.21 501.95 2518.19 502.06 2518.22 492.13 2522.24 491.02 2522.21 501.95"/>
          <polygon class="cls-15" points="2528.02 514.79 2524 514.9 2524.03 504.97 2528.05 503.86 2528.02 514.79"/>
          <polygon class="cls-15" points="2535.05 514.86 2531.03 514.97 2531.06 505.04 2535.09 503.93 2535.05 514.86"/>
          <polygon class="cls-15" points="2541.08 514.07 2537.06 514.18 2537.09 504.25 2541.12 503.14 2541.08 514.07"/>
          <polygon class="cls-15" points="2530.36 485.59 2526.34 485.71 2526.37 475.77 2530.39 474.67 2530.36 485.59"/>
        </g>
        <g>
          <path class="cls-15" d="M2608.48,693.86q2.55-127.35,5.11-254.72c-6.57-2.82-13.44-5.47-20.61-7.87q-6.86-2.29-13.43-4.09.47,134.76.92,269.52Z"/>
          <path class="cls-14" d="M2549.41,442.7,2580,427.2q.12,140.71.25,281.43l-28.82-6.58Q2550.44,572.38,2549.41,442.7Z"/>
          <polygon class="cls-14" points="2606.59 453.98 2610.45 454.33 2610.61 444.4 2606.77 443.06 2606.59 453.98"/>
          <polygon class="cls-14" points="2600.83 452.84 2604.68 453.19 2604.84 443.26 2601.01 441.91 2600.83 452.84"/>
          <polygon class="cls-14" points="2595.06 451.69 2598.91 452.04 2599.07 442.11 2595.24 440.77 2595.06 451.69"/>
          <polygon class="cls-14" points="2589.3 450.54 2593.15 450.89 2593.31 440.96 2589.47 439.62 2589.3 450.54"/>
          <polygon class="cls-14" points="2606.33 470.17 2610.18 470.52 2610.34 460.59 2606.51 459.25 2606.33 470.17"/>
          <polygon class="cls-14" points="2600.57 469.03 2604.42 469.38 2604.58 459.44 2600.74 458.1 2600.57 469.03"/>
          <polygon class="cls-14" points="2588.31 511.04 2592.16 511.39 2592.32 501.46 2588.49 500.12 2588.31 511.04"/>
          <polygon class="cls-14" points="2582.55 509.89 2586.4 510.25 2586.56 500.31 2582.72 498.97 2582.55 509.89"/>
          <polygon class="cls-14" points="2599.86 512.48 2603.71 512.83 2603.87 502.9 2600.04 501.56 2599.86 512.48"/>
          <polygon class="cls-14" points="2594.09 511.33 2597.94 511.69 2598.1 501.75 2594.27 500.41 2594.09 511.33"/>
          <polygon class="cls-14" points="2600.59 527.01 2604.44 527.37 2604.6 517.43 2600.76 516.09 2600.59 527.01"/>
          <polygon class="cls-14" points="2594.82 525.87 2598.67 526.22 2598.83 516.29 2595 514.95 2594.82 525.87"/>
          <polygon class="cls-14" points="2588.08 525.53 2591.93 525.88 2592.09 515.95 2588.25 514.6 2588.08 525.53"/>
          <polygon class="cls-14" points="2582.31 524.38 2586.16 524.73 2586.32 514.8 2582.49 513.46 2582.31 524.38"/>
          <polygon class="cls-14" points="2587.84 540.01 2591.69 540.36 2591.85 530.43 2588.02 529.09 2587.84 540.01"/>
          <polygon class="cls-14" points="2582.07 538.87 2585.93 539.22 2586.09 529.28 2582.25 527.94 2582.07 538.87"/>
          <polygon class="cls-14" points="2587.6 495.65 2591.45 496 2591.61 486.07 2587.78 484.73 2587.6 495.65"/>
          <polygon class="cls-14" points="2582.31 494.53 2586.16 494.88 2586.32 484.95 2582.49 483.61 2582.31 494.53"/>
          <polygon class="cls-15" points="2571.99 494.64 2567.97 494.76 2568.01 484.82 2572.03 483.72 2571.99 494.64"/>
          <polygon class="cls-15" points="2578.03 493.85 2574.01 493.97 2574.04 484.03 2578.06 482.92 2578.03 493.85"/>
          <polygon class="cls-15" points="2565.97 494.58 2561.95 494.7 2561.98 484.76 2566 483.66 2565.97 494.58"/>
          <polygon class="cls-15" points="2558.88 509.86 2554.86 509.97 2554.89 500.04 2558.92 498.93 2558.88 509.86"/>
          <polygon class="cls-15" points="2571.2 523.27 2567.18 523.39 2567.21 513.46 2571.24 512.35 2571.2 523.27"/>
          <polygon class="cls-15" points="2564.91 509.06 2560.89 509.18 2560.93 499.24 2564.95 498.14 2564.91 509.06"/>
          <polygon class="cls-15" points="2571.95 509.13 2567.93 509.25 2567.96 499.31 2571.98 498.21 2571.95 509.13"/>
          <polygon class="cls-15" points="2577.98 508.34 2573.96 508.46 2573.99 498.52 2578.01 497.42 2577.98 508.34"/>
          <polygon class="cls-15" points="2573.05 479.31 2569.03 479.43 2569.06 469.49 2573.08 468.38 2573.05 479.31"/>
          <polygon class="cls-15" points="2578.58 478.51 2574.56 478.63 2574.59 468.69 2578.61 467.59 2578.58 478.51"/>
          <polygon class="cls-15" points="2572.1 577.37 2568.08 577.48 2568.11 567.55 2572.13 566.44 2572.1 577.37"/>
          <polygon class="cls-15" points="2578.13 576.58 2574.11 576.69 2574.14 566.75 2578.16 565.65 2578.13 576.58"/>
          <polygon class="cls-15" points="2566.07 577.31 2562.05 577.42 2562.08 567.49 2566.1 566.38 2566.07 577.31"/>
          <polygon class="cls-15" points="2558.99 592.58 2554.97 592.7 2555 582.76 2559.02 581.65 2558.99 592.58"/>
          <polygon class="cls-15" points="2558.76 606.21 2554.74 606.33 2554.78 596.39 2558.8 595.29 2558.76 606.21"/>
          <polygon class="cls-15" points="2559.21 578.95 2555.19 579.06 2555.22 569.13 2559.24 568.02 2559.21 578.95"/>
          <polygon class="cls-15" points="2565.02 591.79 2561 591.9 2561.03 581.97 2565.05 580.86 2565.02 591.79"/>
          <polygon class="cls-15" points="2572.05 591.86 2568.03 591.97 2568.06 582.04 2572.09 580.93 2572.05 591.86"/>
          <polygon class="cls-15" points="2578.08 591.07 2574.06 591.18 2574.09 581.25 2578.12 580.14 2578.08 591.07"/>
          <polygon class="cls-15" points="2567.36 562.59 2563.34 562.71 2563.37 552.77 2567.39 551.67 2567.36 562.59"/>
        </g>
        <path class="cls-16" d="M1729.43,629.64c5.47-8.82,18.49,1.72,66.57-18.64,5.82-2.46,9.1-20.19,18.43-24.12l12-23.33,36-20.4,68,1.94c.4-6.5,2.13-15.54,9-20.41,6-4.26,12.85-3.11,24-2.91,16.1.27,17-1.88,36-2.92,32.2-1.76,66.51,2.39,71,2.92,99,11.65,250.26-22,417,36a578.14,578.14,0,0,1,55,22.35q2,12.15,4,24.3a83.09,83.09,0,0,1,32,5.83c5.21,2.08,12.71,5.07,20,11.66,10.1,9.14,9.93,16.26,19,29.16,7.33,10.42,12.78,13.37,21,21.37,3.94,3.84,34.32,34,34,61.23-.08,6.16-1.88,25-46,56.36-50,35.53-103.06,50.53-150,59.28-67,12.49-119.68,11.87-132,11.66-212.93-3.6-319.39-5.4-431-46.64,0,0-159.69-59-185-142.86C1725.82,662.78,1720.27,644.4,1729.43,629.64Z"/>
        <path class="cls-17" d="M2308.05,765.49c-.27-2-2.35-2.47-3.37-5.12-.32-.84-1.07-2.82-.14-3.46,1.88-1.3,7.65,5.07,15.23,4.29.37,0,2.35-.7,6.3-2,8.55-2.87,10.83-3.73,11.72-3s0,2.37-.73,3.81c-2,4-5,4.76-4.69,6.43.29,1.52,2.89,1.58,7.91,4.17,1.07.56,7.55,3.91,6.89,5.36s-7.46.55-8.06.48c-6.94-.87-10-3.37-12.16-2.15-.56.32-.8.72-1.61,3.82-1.72,6.58-1.7,8.82-3.08,9.17s-3.18-1.1-4.1-2.38c-1.6-2.23-.25-4.09-1.76-8.46-.41-1.19-.72-1.68-1.32-2-1.37-.79-3.21-.17-6.44.6-4.81,1.14-8.74,2.08-9.67,1.07-.75-.82.72-2.66.88-2.86,2-2.48,4.83-1.88,6.88-4.29A4.61,4.61,0,0,0,2308.05,765.49Z"/>
        <path class="cls-18" d="M2443.58,773.76c-3,.83-3.71,1.83-3.85,2.57-.56,2.88,6.93,7.78,9.64,6.06,1.08-.69,1.27-2.35,1.2-3.85a30.61,30.61,0,0,0,4.94.58c3.57.14,6.25.24,8.68-1.28,1.94-1.21,4.55-4,3.61-6.29-.75-1.86-3.41-2.37-3.85-2.45a6.73,6.73,0,0,0-1.81-4.19c-2.72-2.82-6.93-1.91-7.11-1.87a4.63,4.63,0,0,0-2.65-2.91c-2.34-.71-4.69,1.68-5.79,2.8a11.55,11.55,0,0,0-3.13,6.41A12.31,12.31,0,0,0,2443.58,773.76Z"/>
        <circle class="cls-19" cx="2139.5" cy="211.5" r="24.5"/>
        <path class="cls-20" d="M1630.07,711.14c.59-14.8,9.5-24.9,23.08-39.86,28.51-31.4,67.23-44.53,143.51-69.5,7.74-2.54,28-8.87,48.17-1,7.89,3.07,17.66,9,17.06,14.31-.54,4.84,1.94,6.42-6.89,15.94-.8.86-22,10.28-19.2,15.75,2,3.93,9.56,2.67,31.11,1,25.45-1.95,34.62-1.71,44.16,0,10.59,1.9,20.46,3.8,24.08,11.24,2.31,4.74,0,7.41,2,20.44,1.25,8,1.93,12.09,5,15.34,4.89,5.15,12.45,5.12,17.06,5.11,11.68,0,13.51-5.22,26.09-6.14,5.47-.4,12.52-.91,19.07,3.07,7.43,4.52,6.25,10,13,14.31,6.08,3.86,9.79,1.23,23.08,2,12.2.75,25.89,1.59,31.11,10.22,3.57,5.91,2.69,14.65-1,20.45-6.82,10.7-17.36,21.61-29.13,22.26-14.88.82-21.41-2.37-30.1,3.07-.79.49-1.34-6.07-.4-.18,1.15,7.23,8.28.08,18.46.69,12.71.75,17-2.85,38.14-8.18,21.57-5.45,32.36-8.17,45.16-6.13,7.24,1.15,10,7.53,27.24,15.62,22.64,10.62,29.78,16.66,39,19,18.19,4.63,19.72-3.6,37-3,22.54.79,22.48,21.58,54.33,35.55,16.17,7.09,43.53,8.54,76.67-4.55,18.52-7.31,30.07-16.41,46-18s28.22,20.91,52.95,34.81c21,11.78,23.23,12.54,23.09,14.31-.8,9.58-54.51,12.31-75.27,13.29-151.82,7.15-227.73,10.73-264.94,9.2-101.49-4.19-173.61-13.86-221.78-20.45-66.2-9-140.37-21.86-214.76-67.45C1645.29,754.9,1629.24,732,1630.07,711.14Z"/>
        <path class="cls-21" d="M1616.94,718.12c.58-14.48,9.46-24.36,23-39,28.4-30.72,62-46.69,138.06-71.12,7.71-2.48,32.8-5.55,52.94,2.12,7.86,3,17.59,8.81,17,14-.55,4.73-9.21,4.68-18,14-.8.84-15.78,16.53-12.94,21.88,2,3.85,16.53,5.62,38,4,25.36-1.91,32.44-9.55,41.94-7.88,10.56,1.85,20.39,3.71,24,11,2.29,4.63,0,7.24,2,20,1.24,7.84-9,24.71-5.94,27.88,4.88,5,26.41-1,31-1,11.64,0,11.46-5.1,24-6,5.45-.39,11.48-.89,18,3,7.41,4.42,6.17,2.89,12.94,7.12,6.06,3.78,9.75,1.2,23,2,12.15.73,25.79,1.55,31,10,3.55,5.77-3.26,8.21-6.94,13.88-6.79,10.48-17.28,12.37-29,13-14.83.8-21.41,2.8-30.06,8.12-.79.48-9.94,6.23-9,12,1.14,7.07,16.85,10.41,27,11,12.65.73,17-2.79,38-8,21.49-5.33,32.24-8,45-6,7.21,1.12,15.81,5.08,33,13,22.56,10.38,22.81,12.7,32,15,18.12,4.52,24.78-2.59,42-2,22.45.77,24.26,13.33,56,27,16.11,6.93,53,22.81,86,10,18.45-7.16,18.12-16.45,34-18s30.35,6.4,55,20c20.88,11.52,23.14,12.26,23,14-.8,9.37-54.31,12-75,13-151.29,7-226.93,10.5-264,9-101.14-4.1-173-13.56-221-20-66-8.86-139.88-21.4-214-66C1632.1,760.93,1616.11,738.55,1616.94,718.12Z"/>
        <g>
          <g>
            <path class="cls-22" d="M2512.93,499.25,2568,543l-9.9,7.65L2497.46,502Z"/>
            <path class="cls-22" d="M2329.52,355.79,2429.17,439l-17.92,14.55L2301.53,361Z"/>
            <path class="cls-11" d="M2243.31,432.72c-76.51-4.16-163.09-13.52-239.6-17.67-6,67.91-10.82,127.51-16.8,195.43,80.24,9,169.44,29.46,249.68,38.46C2238.83,576.18,2241.07,505.49,2243.31,432.72Z"/>
            <path class="cls-23" d="M2315.52,362,2415.73,439q-6,93.56-11.93,187.11c-59.65,7.63-108.68,15.31-168.33,22.93-3.58-73.81,4.7-137.22,1.12-211C2270.39,416.14,2281.72,383.86,2315.52,362Z"/>
            <path class="cls-23" d="M2505.19,503l46.5,38.28q-2.3,47.06-4.6,94.09l-82.26,12.18c-2-37.09,4.26-71.62,2.26-108.71C2482.54,527.76,2489.74,514.12,2505.19,503Z"/>
            <path class="cls-11" d="M2362,632.21l108.6,14.66-3.36-110.45-100.76-10.14Q2364.22,579.25,2362,632.21Z"/>
            <path class="cls-22" d="M1969,414l268.71,27,92.93-82.12L2130.23,335Z"/>
            <path class="cls-22" d="M2355.83,534.61l117.72,17.08,40.71-51.89-87.8-15.1Z"/>
          </g>
          <polygon class="cls-24" points="2064.84 520.66 2017.38 513.3 2023.24 443.76 2068.27 450.38 2064.84 520.66"/>
          <polygon class="cls-24" points="2175.68 534.17 2128.22 526.82 2134.09 457.27 2179.11 463.89 2175.68 534.17"/>
          <polygon class="cls-24" points="2397.74 580.95 2381.26 578.41 2383.3 554.4 2398.94 556.69 2397.74 580.95"/>
        </g>
        <g>
          <path class="cls-25" d="M1977,570c3-22-14.44-62.57-35-102,0,0-51.56-98.9-96-138-4.33-3.81-12.49-10-23-10-5.38,0-13.8,1.67-15,6-1.7,6.1,12,13.62,24,23,13.22,10.34,22.14,22.89,40,48,25.93,36.46,45.23,69.72,56,114,9,37,9,54,18,65,5,6.17,15,2,15,2S1975.71,579.46,1977,570Z"/>
          <path class="cls-26" d="M1812.81,316.41c-.5-4.57-26-11.25-48.66-1.88-26.5,11-38.08,39.18-44.76,55.48a146.15,146.15,0,0,0-10.25,41.81,386,386,0,0,1,34.74-47.19c11.43-13.25,17.34-20,27.27-27.14C1794,321.1,1813.26,320.46,1812.81,316.41Z"/>
          <path class="cls-26" d="M1814.29,322.77c-2.15-4.07-28.29-1-46,16-20.69,19.86-21.17,50.37-21.45,68a146.27,146.27,0,0,0,5.7,42.67,385.15,385.15,0,0,1,15.15-56.61c5.8-16.5,8.84-25,15.49-35.21C1798.49,334,1816.18,326.37,1814.29,322.77Z"/>
          <path class="cls-26" d="M1817.32,325.15c-2.07-2-16,3.2-22.33,15-7.34,13.74-1.13,30.7,2.46,40.49a94.41,94.41,0,0,0,12.27,22.87,213.07,213.07,0,0,1-3.57-33.35c-.27-9.91-.37-15,1.17-21.56C1810.87,333.46,1819.14,326.9,1817.32,325.15Z"/>
          <path class="cls-26" d="M1812.92,325c2.47-1.43,1.38-16.29-8.18-25.6-11.16-10.87-29.18-9.6-39.58-8.86a95,95,0,0,0-25.38,5.43,214.49,214.49,0,0,1,33,5.83c9.59,2.49,14.51,3.81,20.38,7.11C1806.73,316.48,1810.74,326.24,1812.92,325Z"/>
          <path class="cls-26" d="M1806.45,319.08c-3.64-2.79,1.26-26.31,18.51-39.25,20.13-15.11,48.64-9.44,65.1-6.17a151.91,151.91,0,0,1,39.37,13.82,344.35,344.35,0,0,0-54,2.63c-15.86,2.05-24,3.16-34.07,7.24C1818.15,306.76,1809.66,321.55,1806.45,319.08Z"/>
          <path class="cls-26" d="M1806.41,325c-2.55-3.82,10.83-22.77,32.42-27.81,25.23-5.88,51.08,9.7,66,18.7a165,165,0,0,1,33.51,26.8A398.45,398.45,0,0,0,1884.5,325c-16.26-4.06-24.63-6.1-36-6.23C1822.35,318.48,1808.65,328.4,1806.41,325Z"/>
          <path class="cls-26" d="M1811.94,327.2c-.81-2.66,9.3-10.94,21.79-9.73,14.58,1.41,26.27,15.17,33,23.12a106.52,106.52,0,0,1,14.16,21.61,240.34,240.34,0,0,0-26.57-20.26c-8.22-5.39-12.45-8.13-18.6-10.35C1821.58,326.47,1812.65,329.54,1811.94,327.2Z"/>
          <path class="cls-26" d="M1807.82,314.83c-2.06.81-6.75-7.5-4.12-18.27,3.07-12.59,14.83-23.24,21.62-29.39A106.77,106.77,0,0,1,1843.2,254a284.9,284.9,0,0,0-18.62,23.72c-5.11,7.3-7.72,11.06-10.21,16.44C1808.63,306.58,1809.65,314.11,1807.82,314.83Z"/>
        </g>
        <g>
          <path class="cls-25" d="M1918.65,604.63c3.14-13.48-15.14-38.34-36.67-62.51,0,0-54-60.61-100.59-84.57a52.52,52.52,0,0,0-24.1-6.13c-5.63,0-14.45,1-15.71,3.68-1.78,3.74,12.58,8.35,25.14,14.09,13.85,6.34,23.2,14,41.91,29.42,27.17,22.34,47.39,42.73,58.68,69.86,9.43,22.68,9.43,33.1,18.86,39.84,5.28,3.78,15.71,1.22,15.71,1.22S1917.29,610.43,1918.65,604.63Z"/>
          <path class="cls-26" d="M1758.22,451.12c-1.11-3.37-28.28-3.91-50.5,7.18-26,12.95-34.26,36.32-39.06,49.81a88,88,0,0,0-5.17,33.4,323.29,323.29,0,0,1,29.78-41.79c10.08-12,15.31-18.19,24.65-25.32C1739.41,458,1759.21,454.1,1758.22,451.12Z"/>
          <path class="cls-26" d="M1760.56,455.66c-2.74-2.7-29.34,4.24-45.44,20.21-18.8,18.66-15.36,41.79-13.37,55.14a84.64,84.64,0,0,0,11.4,31.23,235.68,235.68,0,0,1,8.33-45.44c3.86-13.5,5.9-20.42,11.45-29.34C1745.7,466.93,1763,458.05,1760.56,455.66Z"/>
          <path class="cls-26" d="M1764,456.93c-2.38-1.13-16.15,5.24-21.12,15.24-5.81,11.68,2.8,23.39,7.77,30.15a69.79,69.79,0,0,0,15.62,15.11,122.08,122.08,0,0,1-8-24.56c-1.55-7.44-2.31-11.27-1.57-16.5C1758.42,464.34,1766.11,457.92,1764,456.93Z"/>
          <path class="cls-26" d="M1759.44,457.57c2.36-1.52-.69-12.55-11.76-17.89-12.94-6.24-31.38-2.1-42,.29a131.71,131.71,0,0,0-25.5,8.59,301.77,301.77,0,0,1,34.87-1.44c10.23.19,15.48.32,22,1.77C1751.94,452.24,1757.35,458.91,1759.44,457.57Z"/>
          <path class="cls-26" d="M1752,454.26c-4.11-1.47-2.09-20.1,14-32.92,18.85-15,49-15.73,66.44-16.16a199.77,199.77,0,0,1,42.45,3.48,493.45,493.45,0,0,0-55.44,11.53c-16.1,4.34-24.36,6.62-34.24,11.49C1762.48,442.88,1755.63,455.56,1752,454.26Z"/>
          <path class="cls-26" d="M1752.72,458.76c-3.12-2.43,8.24-19.12,29.89-26.74,25.29-8.9,54-1.69,70.57,2.47a173.08,173.08,0,0,1,38.08,14.33,529.91,529.91,0,0,0-57.89-3.87c-17.33-.2-26.23-.26-38,1.65C1768.34,451,1755.47,460.91,1752.72,458.76Z"/>
          <path class="cls-26" d="M1758.71,459.42c-1.18-1.86,8.2-9.9,21.25-11.2,15.24-1.51,29.09,6.82,37.08,11.63a84.27,84.27,0,0,1,17.42,13.82,263.35,263.35,0,0,0-30-10.61c-9.19-2.62-13.92-3.94-20.55-4.53C1768.58,457.17,1759.75,461.07,1758.71,459.42Z"/>
          <path class="cls-26" d="M1752.86,450.81c-2,1-7.94-4.48-6.62-13.08,1.54-10.05,12.31-20.17,18.53-26a119,119,0,0,1,16.77-13.08,242.15,242.15,0,0,0-16.16,21.21c-4.34,6.42-6.55,9.72-8.43,14.22C1752.63,444.43,1754.65,449.94,1752.86,450.81Z"/>
        </g>
      </g>
      <g>
        <path class="cls-27" d="M1219.35,342.84c38.71.33,58.29,8,67.05,25.7l35.47-23.24h35a204.33,204.33,0,0,0-262.5,2.29c11.46-3.08,25.84-4.42,43.48-4.75Z"/>
        <path class="cls-27" d="M1252.58,612.09h-67c-9.28,0-15.83,4.09-17.74,13.09h-52.39V547.43h-57.28V478.58c0-24.89,16.19-41.39,56.09-44.19l70.93-4.48c45.24-2.8,48.28-3.64,48.28-23.53,0-16.52-1.64-20.16-41.34-20.16h-40.47c-26.4,0-34.57,4-34.57,25.48v8.89h-58.92V396.48s.54-6.64.93-10c-64.25,92.67-41.2,219.87,51.46,284.11l.16.11a104.92,104.92,0,0,1-1.81-16.49v-11.9h57c0,17.19,33.12,22.1,33.12,22.1h58c28.27,0,31.31-7.76,31.31-27.16C1288.33,614.58,1280.85,612.09,1252.58,612.09Z"/>
        <path class="cls-27" d="M1396.15,388.24V547.43h-57.28v-153l-47.27,30.12c-3.36,40.37-20,48.31-82.61,51.68l-64.09,3.34c-26,1.39-29.94,6.41-29.94,24.51h200.17v43.37H1169.47v34.44c7.78-7.67,16.11-12.34,38.34-12.34h69.75s67.62,14.31,67.85,58.84v12.81c-.23,12.42-1.52,22.53-4.13,30.77a204,204,0,0,0,89.2-153.85q.55-7.53.56-15.22A205.42,205.42,0,0,0,1396.15,388.24Z"/>
      </g>
      <rect class="cls-28" x="841.86" y="476" width="80" height="12"/>
      <rect class="cls-28" x="841.86" y="500" width="80" height="12"/>
      <rect class="cls-28" x="1531.86" y="476" width="80" height="12"/>
      <rect class="cls-28" x="1531.86" y="500" width="80" height="12"/>
    </g>
  </g>
</svg>
