<svg xmlns="http://www.w3.org/2000/svg" viewBox="0 0 1315 1606">
  <defs>
    <style>
      .cls-1 {
        fill: #f3f2f0;
      }

      .cls-2 {
        fill: #6b4940;
      }

      .cls-3 {
        fill: #ffa985;
      }

      .cls-4 {
        fill: #f29770;
      }

      .cls-5 {
        fill: #fff28c;
      }

      .cls-6 {
        fill: none;
        stroke: #6b4940;
        stroke-miterlimit: 10;
        stroke-width: 2px;
      }

      .cls-7 {
        fill: #edcaa8;
      }

      .cls-8 {
        fill: #d3e9f4;
      }

      .cls-9 {
        fill: #e9f7ff;
      }

      .cls-10 {
        fill: #ffdbb5;
      }

      .cls-11 {
        fill: #736861;
      }

      .cls-12 {
        fill: #d3b497;
      }

      .cls-13 {
        fill: #b38f81;
      }

      .cls-14 {
        fill: #ed5858;
      }

      .cls-15 {
        fill: #fcf0e0;
      }
    </style>
  </defs>
  <g id="Layer_7" data-name="Layer 7">
    <rect class="cls-1" width="1315" height="1606"/>
    <g>
      <path class="cls-2" d="M804.76,141.75l55.06,43.75-9.9,7.66-60.63-48.67Z"/>
      <path class="cls-3" d="M797,145.53l46.5,38.28-4.59,94.09-82.26,12.17c-2-37.08,4.26-71.62,2.25-108.7C774.37,170.27,781.56,156.63,797,145.53Z"/>
      <path class="cls-4" d="M653.81,274.72l108.61,14.65-3.36-110.44L658.29,168.78Q656.06,221.76,653.81,274.72Z"/>
      <path class="cls-2" d="M647.65,177.12,765.37,194.2l40.71-51.89-87.8-15.11Z"/>
      <polygon class="cls-5" points="689.57 223.46 673.08 220.92 675.12 196.91 690.76 199.19 689.57 223.46"/>
    </g>
    <g>
      <path class="cls-2" d="M803.76,488.75l55.06,43.75-9.9,7.66-60.63-48.67Z"/>
      <path class="cls-3" d="M796,492.53l46.5,38.28-4.59,94.09-82.26,12.17c-2-37.08,4.26-71.62,2.25-108.7C773.37,517.27,780.56,503.63,796,492.53Z"/>
      <path class="cls-4" d="M652.81,621.72l108.61,14.65-3.36-110.44L657.29,515.78Q655.05,568.76,652.81,621.72Z"/>
      <path class="cls-2" d="M646.65,524.12,764.37,541.2l40.71-51.89-87.8-15.11Z"/>
      <polygon class="cls-5" points="688.57 570.46 672.08 567.92 674.12 543.91 689.76 546.19 688.57 570.46"/>
    </g>
    <g>
      <path class="cls-2" d="M801.76,681.75l55.06,43.75-9.9,7.66-60.63-48.67Z"/>
      <path class="cls-3" d="M794,685.53l46.5,38.28-4.59,94.09-82.26,12.17c-2-37.08,4.26-71.62,2.25-108.7C771.37,710.27,778.56,696.63,794,685.53Z"/>
      <path class="cls-4" d="M650.81,814.72l108.61,14.65-3.36-110.44L655.29,708.78Q653.05,761.76,650.81,814.72Z"/>
      <path class="cls-2" d="M644.65,717.12,762.37,734.2l40.71-51.89-87.8-15.11Z"/>
      <polygon class="cls-5" points="686.57 763.46 670.08 760.92 672.12 736.91 687.76 739.19 686.57 763.46"/>
    </g>
    <g>
      <path class="cls-2" d="M804.76,884.75l55.06,43.75-9.9,7.66-60.63-48.67Z"/>
      <path class="cls-3" d="M797,888.53l46.5,38.28-4.59,94.09-82.26,12.17c-2-37.08,4.26-71.62,2.25-108.7C774.37,913.27,781.56,899.63,797,888.53Z"/>
      <path class="cls-4" d="M653.81,1017.72l108.61,14.65-3.36-110.44L658.29,911.78Q656.06,964.76,653.81,1017.72Z"/>
      <path class="cls-2" d="M647.65,920.12,765.37,937.2l40.71-51.89-87.8-15.11Z"/>
      <polygon class="cls-5" points="689.57 966.46 673.08 963.92 675.12 939.91 690.76 942.19 689.57 966.46"/>
    </g>
    <g>
      <path class="cls-2" d="M807.76,1084.75l55.06,43.75-9.9,7.66-60.63-48.67Z"/>
      <path class="cls-3" d="M800,1088.53l46.5,38.28-4.59,94.09-82.26,12.17c-2-37.08,4.26-71.62,2.25-108.7C777.37,1113.27,784.56,1099.63,800,1088.53Z"/>
      <path class="cls-4" d="M656.81,1217.72l108.61,14.65-3.36-110.44-100.77-10.15Q659.06,1164.76,656.81,1217.72Z"/>
      <path class="cls-2" d="M650.65,1120.12l117.72,17.08,40.71-51.89-87.8-15.11Z"/>
      <polygon class="cls-5" points="692.57 1166.46 676.08 1163.92 678.12 1139.91 693.76 1142.19 692.57 1166.46"/>
    </g>
    <g>
      <path class="cls-2" d="M805.76,1291.75l55.06,43.75-9.9,7.66-60.63-48.67Z"/>
      <path class="cls-3" d="M798,1295.53l46.5,38.28-4.59,94.09-82.26,12.17c-2-37.08,4.26-71.62,2.25-108.7C775.37,1320.27,782.56,1306.63,798,1295.53Z"/>
      <path class="cls-4" d="M654.81,1424.72l108.61,14.65-3.36-110.44-100.77-10.15Q657.06,1371.76,654.81,1424.72Z"/>
      <path class="cls-2" d="M648.65,1327.12l117.72,17.08,40.71-51.89-87.8-15.11Z"/>
      <polygon class="cls-5" points="690.57 1373.46 674.08 1370.92 676.12 1346.91 691.76 1349.19 690.57 1373.46"/>
    </g>
    <line class="cls-6" x1="638.04" y1="567.5" x2="499" y2="567"/>
    <line class="cls-6" x1="638.04" y1="229.5" x2="499" y2="229"/>
    <line class="cls-6" x1="636.04" y1="1182.5" x2="497" y2="1182"/>
    <line class="cls-6" x1="636.04" y1="1383.5" x2="497" y2="1383"/>
    <line class="cls-6" x1="972" y1="1383" x2="863" y2="1383"/>
    <line class="cls-6" x1="972" y1="1182" x2="863" y2="1182"/>
    <line class="cls-6" x1="972" y1="983" x2="863" y2="983"/>
    <line class="cls-6" x1="973" y1="771" x2="864" y2="771"/>
    <line class="cls-6" x1="973" y1="576" x2="864" y2="576"/>
    <line class="cls-6" x1="973" y1="223" x2="864" y2="223"/>
    <line class="cls-6" x1="637.04" y1="769.5" x2="498" y2="769"/>
    <line class="cls-6" x1="497.01" y1="1383" x2="498.53" y2="566.73"/>
    <line class="cls-6" x1="637.04" y1="981.51" x2="415" y2="981.01"/>
    <g>
      <g>
        <path class="cls-7" d="M379.82,162.74c.53,4.66-1.65,7.44.22,13.16,2.49,7.63,2.91,9.72,2.41,13.38-.73,5.33-8.76,9.23-20.35,6.47-7.41-1.76-14.39-6.39-14.88-13.38-.28-4,.2-6.16,2.62-11.43,6.31-13.74-4-25.57.44-29.13C355.64,137.49,378.28,149.1,379.82,162.74Z"/>
        <path class="cls-8" d="M412,204.81c.25-5.32-4.18-9.75-7-12.08a216.28,216.28,0,0,0-23.85-6.47c-16.48-3.47-26.33-6-37-1.94-14.88,5.6-16.19,7.33-28.66,12.72-4.27,1.85-9.3,10.15-9.41,11.87-.4,6.23,35.26,12.46,40.48,13.38,21.7,3.79,32.76,5.56,43.33-.22C394.49,219.55,411.51,214.8,412,204.81Z"/>
        <g>
          <path class="cls-9" d="M370.63,182.59q-2.07,9.39-4.16,18.77-8.42-4.76-16.85-9.49l-6.78-8.42q3.51-6.25,7-12.51a32.06,32.06,0,0,0,6.79,6.26A33.13,33.13,0,0,0,370.63,182.59Z"/>
          <path class="cls-9" d="M376.32,199q-2.85-8.2-5.69-16.4A6.51,6.51,0,0,0,380,175.9q3.06,7.13,6.13,14.24l-3.07,5Z"/>
        </g>
        <path class="cls-10" d="M386.94,165.54c-8.26,2.48-14.07.94-16.68,0-.75-.27-.56-.24-12.84-8.77-5.23-3.63-7-4.85-7.88-7.46s-.25-4.55-2-6.54c-1.41-1.58-2.49-1.08-4.4-2.42-3.25-2.29-5.36-7.45-4-11,1-2.78,3.42-2.52,4.58-5.41,1.24-3.08-.33-6.12-1.1-8.4-3.12-9.33,2.75-19.71,3.12-20.34,5.94-10.2,22.5-13.89,35-9.14a25.8,25.8,0,0,1,16,19.52c.65,4,1.19,3.56,0,14.07-1.11,9.5-.19,11.86-1.1,22a143.91,143.91,0,0,1-2.2,15.12Z"/>
        <path class="cls-11" d="M390.86,98.67c-4.56,2.89-11.36,2.41-14,3-3.87.88-2.47,0-9,1.08-8.45,1.41-10.05,2.79-10.73,3.45a12.59,12.59,0,0,0-3.5,8c-.16,3.54-.22,7.77-.22,7.77a2.78,2.78,0,0,1-.43,1.94c-1.27,1.46-4.06-.48-7.44.43-3.18.86-3.45,3.27-5.25,3.24-2.75,0-.68-6.19-1.54-11.22-1.89-11.17,2.19-18.12,2.63-18.77C346,90.61,350,86,355.53,83.78c3-1.2,8.13-1.1,13.13-1.51,3.47-.28,14.69-1.24,23,6.26,1.72,1.55,3.34,3.56,5.25,9.71,1.8,7.19,1.43,11.36.66,11.65S394.53,105.57,390.86,98.67Z"/>
        <path class="cls-12" d="M377.24,154.12c4.62,1.25,8.17-.81,8.22-.21,0,.4-1.55,1.41-2.92,1.92a7.6,7.6,0,0,1-5.74-.21c-3.08-1.29-5.48-4.14-5.41-4.5S373.71,153.16,377.24,154.12Z"/>
      </g>
      <g>
        <g>
          <path class="cls-13" d="M299.06,202.11c-5.51-1.8-11.27-4.29-20.28-14-17.49-18.89-13.3-46.34-12.94-49.83.56-5.5,6.62-18.29,19.84-30,5.61-5,23.92-14.33,42.29-3,14,8.63,15.11,14.35,17.91,25.24,3.25,12.67,1,18.69-.87,24.59-3.57,11.39-9.06,18.12-12.08,29.56-.69,2.6-.86,11.22,3,19,3.7,7.4,19.36,13.92,21.58,14-10.93,1.26-17.49-.2-34.74-3.45C312.15,212.19,306.48,205.12,299.06,202.11Z"/>
          <path class="cls-7" d="M290.86,162a152.74,152.74,0,0,1-1.72,19.2c-1.56,10.1-2.34,15.15-5.4,19.85-5.69,8.75-15.12,12.32-17.9,13.37-9.3,3.52-15.4,1.92-16.18,4.53-1.25,4.14,13,11.73,14,12.3,6.9,3.64,21,9.68,41.85,9.28,3.67-.08,28.06-.82,46.17-14.68,6.11-4.67,6.12-6.72,5.83-7.55-.95-2.65-8-1.14-17-2.37-4.61-.63-19.92-2.72-27-12.94-7.79-11.29-1.64-26.93-.65-29.34Z"/>
          <path class="cls-10" d="M328.83,121.21c-3.67,3.8-13.67,5-20.71,9.28-8,4.82-17.8,7.4-23.3,8.84l-1.08,4.1a7.37,7.37,0,0,0-6.68,4.1c-1.4,3.24.75,6.42,1.51,7.55a11,11,0,0,0,4.74,3.89c2.28,4.88,5.87,15.95,7.66,18,7.87,9.06,16.29,15.72,23.73,15.53,3.29-.08,10.05-9.82,10.57-10.57a42.94,42.94,0,0,0,6-12.08c2.38-10.35.87-6.23,3.56-16.93,1-3.81,2.3-10.62,3.24-13-2.41-2.24-3.07-3.06-4.53-7.77C331.64,126,329.89,124.81,328.83,121.21Z"/>
        </g>
        <path class="cls-14" d="M307.37,171.76c.79,1.37,3.29,5.3,7.36,6.29a6.77,6.77,0,0,0,4.75-.46c.85-.44,2.18-1.14,2.33-2.56a2.7,2.7,0,0,0-1.31-2.68c-.87-.29-1.41.93-2.33.58-.62-.24-.62-.9-1.3-1.4a2.73,2.73,0,0,0-2.52-.11A18.72,18.72,0,0,1,307.37,171.76Z"/>
        <circle class="cls-15" cx="282.45" cy="159.83" r="2.91"/>
        <circle class="cls-15" cx="282.23" cy="208.8" r="1.83"/>
        <circle class="cls-15" cx="279.86" cy="206.21" r="1.83"/>
        <circle class="cls-15" cx="284.39" cy="211.17" r="1.83"/>
        <circle class="cls-15" cx="286.76" cy="212.9" r="1.83"/>
        <circle class="cls-15" cx="290" cy="214.63" r="1.83"/>
        <circle class="cls-15" cx="293.02" cy="216.14" r="1.83"/>
        <circle class="cls-15" cx="296.69" cy="216.58" r="1.83"/>
        <circle class="cls-15" cx="300.36" cy="217.21" r="1.83"/>
        <circle class="cls-15" cx="303.59" cy="216.78" r="1.83"/>
        <circle class="cls-15" cx="315.46" cy="205.78" r="1.83"/>
        <circle class="cls-15" cx="313.52" cy="208.8" r="1.83"/>
        <circle class="cls-15" cx="311.36" cy="211.61" r="1.83"/>
        <circle class="cls-15" cx="309.2" cy="213.55" r="1.83"/>
        <circle class="cls-15" cx="306.61" cy="215.49" r="1.83"/>
        <g>
          <path class="cls-4" d="M267.73,212.51c-4.82,1-6.26,2.32-6.8,2.85a3.56,3.56,0,0,0-1.4,2.54c.1,1.79,2.57,3.26,4.12,3.45a12,12,0,0,0,5.93-.43,14.87,14.87,0,0,0,6.53-2.79c1.06-.87,2.86-2.34,2.54-3.76s-2.61-2-3.73-2.28C272.57,211.5,270.73,211.87,267.73,212.51Z"/>
          <g>
            <path class="cls-4" d="M258.31,192.81a14.25,14.25,0,0,1-6.88-2c-4-2.56-5.23-6.88-6.55-12s-1.43-9.72-1.56-18.61c0-3.23,0-5.88,0-7.65a13.18,13.18,0,0,1,7.13-4.77,13.4,13.4,0,0,1,8.64.65c.14.32,1.58,3.63,3,7,3.69,8.51,5.56,12.88,7.11,18.28,1.81,6.32,1.61,8.4,1.18,10a12.24,12.24,0,0,1-5.33,7.39A12.46,12.46,0,0,1,258.31,192.81Z"/>
            <path class="cls-4" d="M267.29,185.71c.3,1.1-2.11,1.69-3.13,4.39-.41,1.09-.52,2.27.22,5.73a76.7,76.7,0,0,0,2,7.62c1.44,6.64,2.41,9.69,3.08,10.86.11.19.49.82.25,1.32s-1.41.74-2.24.74c-.27-1.28-.67-3-1.18-5.09-1.08-4.26-1.39-4.75-2.56-9-2-7.42-2.14-9.8-4.19-10.68a12,12,0,0,1-3.22-1.38c-.86-.59-2.13-1.45-2.11-2.44,0-1.66,3.79-2.88,6.28-3.24C263.19,184.16,266.93,184.4,267.29,185.71Z"/>
            <path class="cls-10" d="M245.76,218.58a98.66,98.66,0,0,0-3.14-17.39,70.74,70.74,0,0,1-2.74-13.73c-.41-3.37.53-3.13,1.21-8.39a9.09,9.09,0,0,1,1.46-3.92c1.15-1.79,3.07-3.08,4.46-5.13,2.72-4,.57-1.73,5.65-5.46,2.88-2.11,4.39-2.22,7.72-3.64.65-.28,3-.44,3.36.08.63.84,1.09.21-.59,2.43-.84,1.12-3.89,1.7-6.2,3.09s-2,1.56-3.58,3.26a15.13,15.13,0,0,0-2.39,3.8c-.24.48.77.09,4-3.11a34.88,34.88,0,0,1,3.62-3.14,14.7,14.7,0,0,1,7.52-3c.66-.07.95,1.17,1,1.62,0,.73-1.28,1.35-1.18,1.71s1-.07,2.17.41a2.16,2.16,0,0,1,.82,1.54c0,.49.11.59-1,1.53-.68.58-2.36,2-2.16,2.35.09.14,1-.06,2.7-.49s2.1-.51,2.36-.27c.41.38.19,1.38-.18,2.07-.79,1.43-2.15,1.36-3.66,2.51-1,.78-1.21,1.43-2.51,3.84-2,3.62-2.72,4.37-3.39,5.72-2.92,5.82.54,9.43-.68,18.44-.3,2.19,0,2.38-.64,5.46-.26,1.2-2.34,3.54-2.67,5.52-.44,2.58.64,6.61,2.67,11.23,3.73,8.46,2.8,8,2.42,9.41a6.93,6.93,0,0,1-6.23,5.24c-3.27.27-5.36-.12-6.34-1C245.19,237.07,247.24,231.79,245.76,218.58Z"/>
          </g>
        </g>
      </g>
    </g>
    <g>
      <g>
        <path class="cls-7" d="M341.82,925.74c.53,4.66-1.65,7.44.22,13.16,2.49,7.63,2.91,9.72,2.41,13.38-.73,5.33-8.76,9.23-20.35,6.47-7.41-1.76-14.39-6.39-14.88-13.38-.28-4,.2-6.16,2.62-11.43,6.31-13.74-4-25.57.44-29.13C317.64,900.49,340.28,912.1,341.82,925.74Z"/>
        <path class="cls-8" d="M374,967.81c.25-5.32-4.18-9.75-7-12.08a216.28,216.28,0,0,0-23.85-6.47c-16.48-3.47-26.33-6-37-1.94-14.88,5.6-16.19,7.33-28.66,12.72-4.27,1.85-9.3,10.15-9.41,11.87-.4,6.23,35.26,12.46,40.48,13.38,21.7,3.79,32.76,5.56,43.33-.22C356.49,982.55,373.51,977.8,374,967.81Z"/>
        <g>
          <path class="cls-9" d="M332.63,945.59q-2.07,9.39-4.16,18.77-8.42-4.75-16.85-9.49l-6.78-8.42q3.51-6.26,7-12.51a32.06,32.06,0,0,0,6.79,6.26A33.13,33.13,0,0,0,332.63,945.59Z"/>
          <path class="cls-9" d="M338.32,962q-2.85-8.21-5.69-16.4A6.51,6.51,0,0,0,342,938.9q3.06,7.13,6.13,14.24l-3.07,5Z"/>
        </g>
        <path class="cls-10" d="M348.94,928.54c-8.26,2.48-14.07.94-16.68,0-.75-.27-.56-.24-12.84-8.77-5.23-3.63-7-4.85-7.88-7.46s-.25-4.55-2-6.54c-1.41-1.58-2.49-1.08-4.4-2.42-3.25-2.29-5.36-7.45-4-11,1-2.78,3.42-2.52,4.58-5.41,1.24-3.08-.33-6.12-1.1-8.4-3.12-9.33,2.75-19.71,3.12-20.34,5.94-10.2,22.5-13.89,35-9.14a25.8,25.8,0,0,1,16,19.52c.65,4,1.19,3.56,0,14.07-1.11,9.5-.19,11.86-1.1,22a143.91,143.91,0,0,1-2.2,15.12Z"/>
        <path class="cls-11" d="M352.86,861.67c-4.56,2.89-11.36,2.41-14,3-3.87.88-2.47,0-9,1.08-8.45,1.41-10.05,2.79-10.73,3.45a12.59,12.59,0,0,0-3.5,8c-.16,3.54-.22,7.77-.22,7.77a2.78,2.78,0,0,1-.43,1.94c-1.27,1.46-4.06-.48-7.44.43-3.18.86-3.45,3.27-5.25,3.24-2.75-.05-.68-6.19-1.54-11.22-1.89-11.17,2.19-18.12,2.63-18.77,4.72-7,8.69-11.58,14.22-13.81,3-1.2,8.13-1.1,13.13-1.51,3.47-.28,14.69-1.24,23,6.26,1.72,1.55,3.34,3.56,5.25,9.71,1.8,7.19,1.43,11.36.66,11.65S356.53,868.57,352.86,861.67Z"/>
        <path class="cls-12" d="M339.24,917.12c4.62,1.25,8.17-.81,8.22-.21,0,.4-1.55,1.41-2.92,1.92a7.6,7.6,0,0,1-5.74-.21c-3.08-1.29-5.48-4.14-5.41-4.5S335.71,916.16,339.24,917.12Z"/>
      </g>
      <g>
        <g>
          <path class="cls-13" d="M261.06,965.11c-5.51-1.8-11.27-4.29-20.28-14-17.49-18.89-13.3-46.34-12.94-49.83.56-5.5,6.62-18.29,19.84-30,5.61-5,23.92-14.33,42.29-3,14,8.63,15.11,14.35,17.91,25.24,3.25,12.67,1,18.69-.87,24.59-3.57,11.39-9.06,18.12-12.08,29.56-.69,2.6-.86,11.22,3,19,3.7,7.4,19.36,13.92,21.58,14-10.93,1.26-17.49-.2-34.74-3.45C274.15,975.19,268.48,968.12,261.06,965.11Z"/>
          <path class="cls-7" d="M252.86,925a152.74,152.74,0,0,1-1.72,19.2c-1.56,10.1-2.34,15.15-5.4,19.85-5.69,8.75-15.12,12.32-17.9,13.37-9.3,3.52-15.4,1.92-16.18,4.53-1.25,4.14,13,11.73,14,12.3,6.9,3.64,21,9.68,41.85,9.28,3.67-.08,28.06-.82,46.17-14.68,6.11-4.67,6.12-6.72,5.83-7.55-.95-2.65-8-1.14-17-2.37-4.61-.63-19.92-2.72-27-12.94-7.79-11.29-1.64-26.93-.65-29.34Z"/>
          <path class="cls-10" d="M290.83,884.21c-3.67,3.8-13.67,5-20.71,9.28-8,4.82-17.8,7.4-23.3,8.84l-1.08,4.1a7.37,7.37,0,0,0-6.68,4.1c-1.4,3.24.75,6.42,1.51,7.55a11,11,0,0,0,4.74,3.89c2.28,4.88,5.87,15.95,7.66,18,7.87,9.06,16.29,15.72,23.73,15.53,3.29-.08,10.05-9.82,10.57-10.57a42.94,42.94,0,0,0,6-12.08c2.38-10.35.87-6.23,3.56-16.93,1-3.81,2.3-10.62,3.24-12.95-2.41-2.24-3.07-3.06-4.53-7.77C293.64,889,291.89,887.81,290.83,884.21Z"/>
        </g>
        <path class="cls-14" d="M269.37,934.76c.79,1.37,3.29,5.3,7.36,6.29a6.77,6.77,0,0,0,4.75-.46c.85-.44,2.18-1.14,2.33-2.56a2.7,2.7,0,0,0-1.31-2.68c-.87-.29-1.41.93-2.33.58-.62-.24-.62-.9-1.3-1.4a2.73,2.73,0,0,0-2.52-.11A18.72,18.72,0,0,1,269.37,934.76Z"/>
        <circle class="cls-15" cx="244.45" cy="922.83" r="2.91"/>
        <circle class="cls-15" cx="244.23" cy="971.8" r="1.83"/>
        <circle class="cls-15" cx="241.86" cy="969.21" r="1.83"/>
        <circle class="cls-15" cx="246.39" cy="974.17" r="1.83"/>
        <circle class="cls-15" cx="248.76" cy="975.9" r="1.83"/>
        <circle class="cls-15" cx="252" cy="977.63" r="1.83"/>
        <circle class="cls-15" cx="255.02" cy="979.14" r="1.83"/>
        <circle class="cls-15" cx="258.69" cy="979.58" r="1.83"/>
        <circle class="cls-15" cx="262.36" cy="980.21" r="1.83"/>
        <circle class="cls-15" cx="265.59" cy="979.78" r="1.83"/>
        <circle class="cls-15" cx="277.46" cy="968.78" r="1.83"/>
        <circle class="cls-15" cx="275.52" cy="971.8" r="1.83"/>
        <circle class="cls-15" cx="273.36" cy="974.61" r="1.83"/>
        <circle class="cls-15" cx="271.2" cy="976.55" r="1.83"/>
        <circle class="cls-15" cx="268.61" cy="978.49" r="1.83"/>
        <g>
          <path class="cls-4" d="M229.73,975.51c-4.82,1-6.26,2.32-6.8,2.85a3.56,3.56,0,0,0-1.4,2.54c.1,1.79,2.57,3.26,4.12,3.45a12,12,0,0,0,5.93-.43,14.87,14.87,0,0,0,6.53-2.79c1.06-.87,2.86-2.34,2.54-3.76s-2.61-2-3.73-2.28C234.57,974.5,232.73,974.87,229.73,975.51Z"/>
          <g>
            <path class="cls-4" d="M220.31,955.81a14.25,14.25,0,0,1-6.88-2c-4-2.56-5.23-6.88-6.55-12s-1.43-9.72-1.56-18.61c0-3.23,0-5.88,0-7.65a13.18,13.18,0,0,1,7.13-4.77,13.4,13.4,0,0,1,8.64.65c.14.32,1.58,3.63,3,7,3.69,8.51,5.56,12.88,7.11,18.28,1.81,6.32,1.61,8.4,1.18,10a12.24,12.24,0,0,1-5.33,7.39A12.46,12.46,0,0,1,220.31,955.81Z"/>
            <path class="cls-4" d="M229.29,948.71c.3,1.1-2.11,1.69-3.13,4.39-.41,1.09-.52,2.27.22,5.73a76.7,76.7,0,0,0,2,7.62c1.44,6.64,2.41,9.69,3.08,10.86.11.19.49.82.25,1.32s-1.41.74-2.24.74c-.27-1.28-.67-3-1.18-5.09-1.08-4.26-1.39-4.75-2.56-9-2-7.42-2.14-9.8-4.19-10.68a12,12,0,0,1-3.22-1.38c-.86-.59-2.13-1.45-2.11-2.44,0-1.66,3.79-2.88,6.28-3.24C225.19,947.16,228.93,947.4,229.29,948.71Z"/>
            <path class="cls-10" d="M207.76,981.58a98.66,98.66,0,0,0-3.14-17.39,70.74,70.74,0,0,1-2.74-13.73c-.41-3.37.53-3.13,1.21-8.39a9.09,9.09,0,0,1,1.46-3.92c1.15-1.79,3.07-3.08,4.46-5.13,2.72-4,.57-1.73,5.65-5.46,2.88-2.11,4.39-2.22,7.72-3.64.65-.28,3-.44,3.36.08.63.84,1.09.21-.59,2.43-.84,1.12-3.89,1.7-6.2,3.09s-2,1.56-3.58,3.26a15.13,15.13,0,0,0-2.39,3.8c-.24.48.77.09,4-3.11a34.88,34.88,0,0,1,3.62-3.14,14.7,14.7,0,0,1,7.52-3c.66-.07.95,1.17,1,1.62,0,.73-1.28,1.35-1.18,1.71s1.05-.07,2.17.41a2.16,2.16,0,0,1,.82,1.54c0,.49.11.59-1,1.53-.68.58-2.36,2-2.16,2.35.09.14,1-.06,2.7-.49s2.1-.51,2.36-.27c.41.38.19,1.38-.18,2.07-.79,1.43-2.15,1.36-3.66,2.51-1,.78-1.21,1.43-2.51,3.84-2,3.62-2.72,4.37-3.39,5.72-2.92,5.82.54,9.43-.68,18.44-.3,2.19,0,2.38-.64,5.46-.26,1.2-2.34,3.54-2.67,5.52-.44,2.58.64,6.61,2.67,11.23,3.73,8.46,2.8,8,2.42,9.41a6.93,6.93,0,0,1-6.23,5.24c-3.27.27-5.36-.12-6.34-1C207.19,1000.07,209.24,994.79,207.76,981.58Z"/>
          </g>
        </g>
      </g>
    </g>
    <g>
      <path d="M228.74,290.09h-.09l-5.2,2.8-.78-3.08,6.53-3.49h3.45v29.9h-3.91Z"/>
      <path d="M243.87,313.83a2.72,2.72,0,0,1,2.76-2.9,2.91,2.91,0,1,1-2.76,2.9Z"/>
      <path d="M270.92,289.72H259.51l-1.15,7.68a16.41,16.41,0,0,1,2.44-.18,12.68,12.68,0,0,1,6.44,1.61,8.51,8.51,0,0,1,4.28,7.68c0,5.84-4.65,10.22-11.14,10.22a14.66,14.66,0,0,1-7.45-1.84l1-3.09a13.37,13.37,0,0,0,6.4,1.66c3.82,0,7.08-2.49,7.08-6.49s-2.62-6.62-8.6-6.62a30.62,30.62,0,0,0-4.14.32l1.93-14.35h14.31Z"/>
      <path d="M279,313.37a16.94,16.94,0,0,0,3.27-.14,11.29,11.29,0,0,0,6.26-2.9,13.1,13.1,0,0,0,3.95-8h-.13a8.77,8.77,0,0,1-7,3.22c-5.39,0-8.84-4-8.84-9.15,0-5.66,4.1-10.63,10.22-10.63s9.89,5,9.89,12.61c0,6.57-2.21,11.17-5.15,14a15,15,0,0,1-8.7,4,18.57,18.57,0,0,1-3.73.23Zm1.48-17.21c0,3.73,2.25,6.35,5.75,6.35a6.69,6.69,0,0,0,5.89-3.13,2.68,2.68,0,0,0,.36-1.47c0-5.11-1.88-9-6.11-9C282.92,288.89,280.49,291.93,280.49,296.16Z"/>
      <path d="M318.12,289.72H306.71l-1.15,7.68a16.26,16.26,0,0,1,2.43-.18,12.74,12.74,0,0,1,6.45,1.61,8.52,8.52,0,0,1,4.27,7.68c0,5.84-4.64,10.22-11.13,10.22a14.6,14.6,0,0,1-7.45-1.84l1-3.09a13.33,13.33,0,0,0,6.39,1.66c3.82,0,7.09-2.49,7.09-6.49s-2.62-6.62-8.6-6.62a30.48,30.48,0,0,0-4.14.32l1.93-14.35h14.31Z"/>
      <path d="M324.19,313.83a2.72,2.72,0,0,1,2.76-2.9,2.91,2.91,0,0,1-.05,5.8A2.71,2.71,0,0,1,324.19,313.83Z"/>
      <path d="M353.26,301c0,10.16-3.77,15.78-10.4,15.78-5.84,0-9.8-5.48-9.89-15.37s4.32-15.55,10.4-15.55C349.67,285.81,353.26,291.42,353.26,301Zm-16.24.46c0,7.77,2.39,12.19,6.07,12.19,4.14,0,6.12-4.83,6.12-12.47,0-7.36-1.89-12.19-6.07-12.19C339.6,288.94,337,293.26,337,301.41Z"/>
      <path d="M376.86,301c0,10.16-3.78,15.78-10.4,15.78-5.84,0-9.8-5.48-9.89-15.37s4.32-15.55,10.4-15.55C373.27,285.81,376.86,291.42,376.86,301Zm-16.24.46c0,7.77,2.39,12.19,6.07,12.19,4.14,0,6.12-4.83,6.12-12.47,0-7.36-1.89-12.19-6.07-12.19C363.19,288.94,360.62,293.26,360.62,301.41Z"/>
      <path d="M400.45,301c0,10.16-3.77,15.78-10.39,15.78-5.85,0-9.8-5.48-9.89-15.37s4.32-15.55,10.39-15.55C396.87,285.81,400.45,291.42,400.45,301Zm-16.24.46c0,7.77,2.4,12.19,6.08,12.19,4.14,0,6.12-4.83,6.12-12.47,0-7.36-1.89-12.19-6.08-12.19C386.79,288.94,384.21,293.26,384.21,301.41Z"/>
      <path d="M402.84,321.88a65,65,0,0,0,2.76-11l4.51-.46a56.05,56.05,0,0,1-4.37,11.18Z"/>
      <path d="M424.37,302.28v3H413v-3Z"/>
    </g>
    <g>
      <path d="M1028.74,208.09h-.09l-5.2,2.8-.78-3.08,6.53-3.49h3.45v29.9h-3.91Z"/>
      <path d="M1043.87,231.83a2.72,2.72,0,0,1,2.76-2.9,2.91,2.91,0,1,1-2.76,2.9Z"/>
      <path d="M1070.92,207.72h-11.41l-1.15,7.68a16.41,16.41,0,0,1,2.44-.18,12.68,12.68,0,0,1,6.44,1.61,8.51,8.51,0,0,1,4.28,7.68c0,5.84-4.65,10.22-11.14,10.22a14.66,14.66,0,0,1-7.45-1.84l1-3.09a13.37,13.37,0,0,0,6.4,1.66c3.82,0,7.08-2.49,7.08-6.49s-2.62-6.62-8.6-6.62a30.62,30.62,0,0,0-4.14.32l1.93-14.35h14.31Z"/>
      <path d="M1079,231.37a16.94,16.94,0,0,0,3.27-.14,11.29,11.29,0,0,0,6.26-2.9,13.1,13.1,0,0,0,4-8h-.13a8.77,8.77,0,0,1-7,3.22c-5.39,0-8.84-4.05-8.84-9.15,0-5.66,4.1-10.63,10.22-10.63s9.89,5,9.89,12.61c0,6.57-2.21,11.17-5.15,14a15,15,0,0,1-8.7,4,18.57,18.57,0,0,1-3.73.23Zm1.48-17.21c0,3.73,2.25,6.35,5.75,6.35a6.69,6.69,0,0,0,5.89-3.13,2.68,2.68,0,0,0,.36-1.47c0-5.11-1.88-9-6.11-9C1082.92,206.89,1080.49,209.93,1080.49,214.16Z"/>
      <path d="M1118.12,207.72h-11.41l-1.15,7.68a16.26,16.26,0,0,1,2.43-.18,12.74,12.74,0,0,1,6.45,1.61,8.52,8.52,0,0,1,4.27,7.68c0,5.84-4.64,10.22-11.13,10.22a14.6,14.6,0,0,1-7.45-1.84l1-3.09a13.33,13.33,0,0,0,6.39,1.66c3.82,0,7.09-2.49,7.09-6.49s-2.62-6.62-8.6-6.62a30.48,30.48,0,0,0-4.14.32l1.93-14.35h14.31Z"/>
      <path d="M1124.19,231.83a2.72,2.72,0,0,1,2.76-2.9,2.91,2.91,0,0,1,0,5.8A2.71,2.71,0,0,1,1124.19,231.83Z"/>
      <path d="M1153.26,219c0,10.16-3.77,15.78-10.4,15.78-5.84,0-9.8-5.48-9.89-15.37s4.32-15.55,10.4-15.55C1149.67,203.81,1153.26,209.42,1153.26,219Zm-16.24.46c0,7.77,2.39,12.19,6.07,12.19,4.14,0,6.12-4.83,6.12-12.47,0-7.36-1.89-12.19-6.07-12.19C1139.6,206.94,1137,211.26,1137,219.41Z"/>
      <path d="M1176.86,219c0,10.16-3.78,15.78-10.4,15.78-5.84,0-9.8-5.48-9.89-15.37s4.32-15.55,10.4-15.55C1173.27,203.81,1176.86,209.42,1176.86,219Zm-16.24.46c0,7.77,2.39,12.19,6.07,12.19,4.14,0,6.12-4.83,6.12-12.47,0-7.36-1.89-12.19-6.07-12.19C1163.19,206.94,1160.62,211.26,1160.62,219.41Z"/>
      <path d="M1200.45,219c0,10.16-3.77,15.78-10.39,15.78-5.85,0-9.8-5.48-9.89-15.37s4.32-15.55,10.39-15.55C1196.87,203.81,1200.45,209.42,1200.45,219Zm-16.24.46c0,7.77,2.4,12.19,6.08,12.19,4.14,0,6.12-4.83,6.12-12.47,0-7.36-1.89-12.19-6.08-12.19C1186.79,206.94,1184.21,211.26,1184.21,219.41Z"/>
      <path d="M1202.84,239.88a65,65,0,0,0,2.76-11l4.51-.46a56.05,56.05,0,0,1-4.37,11.18Z"/>
      <path d="M1224.37,220.28v3H1213v-3Z"/>
    </g>
    <g>
      <path d="M1022,540.17a14.61,14.61,0,0,0-3,.18A12.15,12.15,0,0,0,1008.59,551h.13a8.91,8.91,0,0,1,7.23-3.45c5.29,0,9,3.82,9,9.66,0,5.47-3.72,10.54-9.93,10.54-6.4,0-10.58-5-10.58-12.75,0-5.89,2.11-10.53,5.06-13.48a16.23,16.23,0,0,1,9.56-4.41,18.75,18.75,0,0,1,2.95-.23Zm-1.15,17.25c0-4.28-2.44-6.85-6.17-6.85a6.64,6.64,0,0,0-5.79,3.68,3.38,3.38,0,0,0-.46,1.79c.09,4.92,2.34,8.56,6.58,8.56C1018.52,564.6,1020.87,561.7,1020.87,557.42Z"/>
      <path d="M1028.87,564.83a2.72,2.72,0,0,1,2.76-2.9,2.91,2.91,0,1,1-2.76,2.9Z"/>
      <path d="M1055.14,540.17a14.61,14.61,0,0,0-3,.18A12.14,12.14,0,0,0,1041.71,551h.13a8.91,8.91,0,0,1,7.23-3.45c5.29,0,9,3.82,9,9.66,0,5.47-3.72,10.54-9.93,10.54-6.4,0-10.59-5-10.59-12.75,0-5.89,2.12-10.53,5.06-13.48a16.29,16.29,0,0,1,9.57-4.41,18.75,18.75,0,0,1,3-.23ZM1054,557.42c0-4.28-2.44-6.85-6.17-6.85a6.63,6.63,0,0,0-5.79,3.68,3.38,3.38,0,0,0-.46,1.79c.09,4.92,2.34,8.56,6.58,8.56C1051.64,564.6,1054,561.7,1054,557.42Z"/>
      <path d="M1064,564.37a16.94,16.94,0,0,0,3.27-.14,11.29,11.29,0,0,0,6.26-2.9,13.1,13.1,0,0,0,4-8h-.13a8.77,8.77,0,0,1-7,3.22c-5.39,0-8.84-4.05-8.84-9.15,0-5.66,4.1-10.63,10.22-10.63s9.89,5,9.89,12.61c0,6.57-2.21,11.17-5.15,14a15,15,0,0,1-8.7,4,18.57,18.57,0,0,1-3.73.23Zm1.48-17.21c0,3.73,2.25,6.35,5.75,6.35a6.69,6.69,0,0,0,5.89-3.13,2.68,2.68,0,0,0,.36-1.47c0-5.11-1.88-9-6.11-9C1067.92,539.89,1065.49,542.93,1065.49,547.16Z"/>
      <path d="M1087.61,564.37a16.94,16.94,0,0,0,3.27-.14,11.26,11.26,0,0,0,6.25-2.9,13.1,13.1,0,0,0,4-8H1101a8.74,8.74,0,0,1-7,3.22c-5.38,0-8.83-4.05-8.83-9.15,0-5.66,4.1-10.63,10.21-10.63s9.9,5,9.9,12.61c0,6.57-2.21,11.17-5.16,14a15,15,0,0,1-8.69,4,18.57,18.57,0,0,1-3.73.23Zm1.47-17.21c0,3.73,2.26,6.35,5.75,6.35a6.67,6.67,0,0,0,5.89-3.13,2.68,2.68,0,0,0,.37-1.47c0-5.11-1.88-9-6.12-9C1091.52,539.89,1089.08,542.93,1089.08,547.16Z"/>
      <path d="M1109.19,564.83a2.72,2.72,0,0,1,2.76-2.9,2.91,2.91,0,0,1,0,5.8A2.71,2.71,0,0,1,1109.19,564.83Z"/>
      <path d="M1138.26,552c0,10.16-3.77,15.78-10.4,15.78-5.84,0-9.8-5.48-9.89-15.37s4.32-15.55,10.4-15.55C1134.67,536.81,1138.26,542.42,1138.26,552Zm-16.24.46c0,7.77,2.39,12.19,6.07,12.19,4.14,0,6.12-4.83,6.12-12.47,0-7.36-1.89-12.19-6.07-12.19C1124.6,539.94,1122,544.26,1122,552.41Z"/>
      <path d="M1161.86,552c0,10.16-3.78,15.78-10.4,15.78-5.84,0-9.8-5.48-9.89-15.37s4.32-15.55,10.4-15.55C1158.27,536.81,1161.86,542.42,1161.86,552Zm-16.24.46c0,7.77,2.39,12.19,6.07,12.19,4.14,0,6.12-4.83,6.12-12.47,0-7.36-1.89-12.19-6.07-12.19C1148.19,539.94,1145.62,544.26,1145.62,552.41Z"/>
      <path d="M1185.45,552c0,10.16-3.77,15.78-10.39,15.78-5.85,0-9.8-5.48-9.89-15.37s4.32-15.55,10.39-15.55C1181.87,536.81,1185.45,542.42,1185.45,552Zm-16.24.46c0,7.77,2.4,12.19,6.08,12.19,4.14,0,6.12-4.83,6.12-12.47,0-7.36-1.89-12.19-6.08-12.19C1171.79,539.94,1169.21,544.26,1169.21,552.41Z"/>
      <path d="M1187.84,572.88a65,65,0,0,0,2.76-11l4.51-.46a56.05,56.05,0,0,1-4.37,11.18Z"/>
      <path d="M1209.37,553.28v3H1198v-3Z"/>
    </g>
    <g>
      <path d="M1022,735.17a14.61,14.61,0,0,0-3,.18A12.15,12.15,0,0,0,1008.59,746h.13a8.91,8.91,0,0,1,7.23-3.45c5.29,0,9,3.82,9,9.66,0,5.47-3.72,10.54-9.93,10.54-6.4,0-10.58-5-10.58-12.75,0-5.89,2.11-10.53,5.06-13.48a16.23,16.23,0,0,1,9.56-4.41,18.75,18.75,0,0,1,2.95-.23Zm-1.15,17.25c0-4.28-2.44-6.85-6.17-6.85a6.64,6.64,0,0,0-5.79,3.68,3.38,3.38,0,0,0-.46,1.79c.09,4.92,2.34,8.56,6.58,8.56C1018.52,759.6,1020.87,756.7,1020.87,752.42Z"/>
      <path d="M1028.87,759.83a2.72,2.72,0,0,1,2.76-2.9,2.91,2.91,0,1,1-2.76,2.9Z"/>
      <path d="M1055.14,735.17a14.61,14.61,0,0,0-3,.18A12.14,12.14,0,0,0,1041.71,746h.13a8.91,8.91,0,0,1,7.23-3.45c5.29,0,9,3.82,9,9.66,0,5.47-3.72,10.54-9.93,10.54-6.4,0-10.59-5-10.59-12.75,0-5.89,2.12-10.53,5.06-13.48a16.29,16.29,0,0,1,9.57-4.41,18.75,18.75,0,0,1,3-.23ZM1054,752.42c0-4.28-2.44-6.85-6.17-6.85a6.63,6.63,0,0,0-5.79,3.68,3.38,3.38,0,0,0-.46,1.79c.09,4.92,2.34,8.56,6.58,8.56C1051.64,759.6,1054,756.7,1054,752.42Z"/>
      <path d="M1064,759.37a16.94,16.94,0,0,0,3.27-.14,11.29,11.29,0,0,0,6.26-2.9,13.1,13.1,0,0,0,4-8h-.13a8.77,8.77,0,0,1-7,3.22c-5.39,0-8.84-4.05-8.84-9.15,0-5.66,4.1-10.63,10.22-10.63s9.89,5,9.89,12.61c0,6.57-2.21,11.17-5.15,14a15,15,0,0,1-8.7,4,18.57,18.57,0,0,1-3.73.23Zm1.48-17.21c0,3.73,2.25,6.35,5.75,6.35a6.69,6.69,0,0,0,5.89-3.13,2.68,2.68,0,0,0,.36-1.47c0-5.11-1.88-9-6.11-9C1067.92,734.89,1065.49,737.93,1065.49,742.16Z"/>
      <path d="M1087.61,759.37a16.94,16.94,0,0,0,3.27-.14,11.26,11.26,0,0,0,6.25-2.9,13.1,13.1,0,0,0,4-8H1101a8.74,8.74,0,0,1-7,3.22c-5.38,0-8.83-4.05-8.83-9.15,0-5.66,4.1-10.63,10.21-10.63s9.9,5,9.9,12.61c0,6.57-2.21,11.17-5.16,14a15,15,0,0,1-8.69,4,18.57,18.57,0,0,1-3.73.23Zm1.47-17.21c0,3.73,2.26,6.35,5.75,6.35a6.67,6.67,0,0,0,5.89-3.13,2.68,2.68,0,0,0,.37-1.47c0-5.11-1.88-9-6.12-9C1091.52,734.89,1089.08,737.93,1089.08,742.16Z"/>
      <path d="M1109.19,759.83a2.72,2.72,0,0,1,2.76-2.9,2.91,2.91,0,0,1,0,5.8A2.71,2.71,0,0,1,1109.19,759.83Z"/>
      <path d="M1138.26,747c0,10.16-3.77,15.78-10.4,15.78-5.84,0-9.8-5.48-9.89-15.37s4.32-15.55,10.4-15.55C1134.67,731.81,1138.26,737.42,1138.26,747Zm-16.24.46c0,7.77,2.39,12.19,6.07,12.19,4.14,0,6.12-4.83,6.12-12.47,0-7.36-1.89-12.19-6.07-12.19C1124.6,734.94,1122,739.26,1122,747.41Z"/>
      <path d="M1161.86,747c0,10.16-3.78,15.78-10.4,15.78-5.84,0-9.8-5.48-9.89-15.37s4.32-15.55,10.4-15.55C1158.27,731.81,1161.86,737.42,1161.86,747Zm-16.24.46c0,7.77,2.39,12.19,6.07,12.19,4.14,0,6.12-4.83,6.12-12.47,0-7.36-1.89-12.19-6.07-12.19C1148.19,734.94,1145.62,739.26,1145.62,747.41Z"/>
      <path d="M1185.45,747c0,10.16-3.77,15.78-10.39,15.78-5.85,0-9.8-5.48-9.89-15.37s4.32-15.55,10.39-15.55C1181.87,731.81,1185.45,737.42,1185.45,747Zm-16.24.46c0,7.77,2.4,12.19,6.08,12.19,4.14,0,6.12-4.83,6.12-12.47,0-7.36-1.89-12.19-6.08-12.19C1171.79,734.94,1169.21,739.26,1169.21,747.41Z"/>
      <path d="M1187.84,767.88a65,65,0,0,0,2.76-11l4.51-.46a56.05,56.05,0,0,1-4.37,11.18Z"/>
      <path d="M1209.37,748.28v3H1198v-3Z"/>
    </g>
    <g>
      <path d="M1022,949.17a14.61,14.61,0,0,0-3,.18A12.15,12.15,0,0,0,1008.59,960h.13a8.91,8.91,0,0,1,7.23-3.45c5.29,0,9,3.82,9,9.66,0,5.47-3.72,10.54-9.93,10.54-6.4,0-10.58-5-10.58-12.75,0-5.89,2.11-10.53,5.06-13.48a16.23,16.23,0,0,1,9.56-4.41,18.75,18.75,0,0,1,2.95-.23Zm-1.15,17.25c0-4.28-2.44-6.85-6.17-6.85a6.64,6.64,0,0,0-5.79,3.68,3.38,3.38,0,0,0-.46,1.79c.09,4.92,2.34,8.56,6.58,8.56C1018.52,973.6,1020.87,970.7,1020.87,966.42Z"/>
      <path d="M1028.87,973.83a2.72,2.72,0,0,1,2.76-2.9,2.91,2.91,0,1,1-2.76,2.9Z"/>
      <path d="M1055.14,949.17a14.61,14.61,0,0,0-3,.18A12.14,12.14,0,0,0,1041.71,960h.13a8.91,8.91,0,0,1,7.23-3.45c5.29,0,9,3.82,9,9.66,0,5.47-3.72,10.54-9.93,10.54-6.4,0-10.59-5-10.59-12.75,0-5.89,2.12-10.53,5.06-13.48a16.29,16.29,0,0,1,9.57-4.41,18.75,18.75,0,0,1,3-.23ZM1054,966.42c0-4.28-2.44-6.85-6.17-6.85a6.63,6.63,0,0,0-5.79,3.68,3.38,3.38,0,0,0-.46,1.79c.09,4.92,2.34,8.56,6.58,8.56C1051.64,973.6,1054,970.7,1054,966.42Z"/>
      <path d="M1064,973.37a16.94,16.94,0,0,0,3.27-.14,11.29,11.29,0,0,0,6.26-2.9,13.1,13.1,0,0,0,4-8h-.13a8.77,8.77,0,0,1-7,3.22c-5.39,0-8.84-4.05-8.84-9.15,0-5.66,4.1-10.63,10.22-10.63s9.89,5,9.89,12.61c0,6.57-2.21,11.17-5.15,14a15,15,0,0,1-8.7,4,18.57,18.57,0,0,1-3.73.23Zm1.48-17.21c0,3.73,2.25,6.35,5.75,6.35a6.69,6.69,0,0,0,5.89-3.13,2.68,2.68,0,0,0,.36-1.47c0-5.11-1.88-9-6.11-9C1067.92,948.89,1065.49,951.93,1065.49,956.16Z"/>
      <path d="M1087.61,973.37a16.94,16.94,0,0,0,3.27-.14,11.26,11.26,0,0,0,6.25-2.9,13.1,13.1,0,0,0,4-8H1101a8.74,8.74,0,0,1-7,3.22c-5.38,0-8.83-4.05-8.83-9.15,0-5.66,4.1-10.63,10.21-10.63s9.9,5,9.9,12.61c0,6.57-2.21,11.17-5.16,14a15,15,0,0,1-8.69,4,18.57,18.57,0,0,1-3.73.23Zm1.47-17.21c0,3.73,2.26,6.35,5.75,6.35a6.67,6.67,0,0,0,5.89-3.13,2.68,2.68,0,0,0,.37-1.47c0-5.11-1.88-9-6.12-9C1091.52,948.89,1089.08,951.93,1089.08,956.16Z"/>
      <path d="M1109.19,973.83a2.72,2.72,0,0,1,2.76-2.9,2.91,2.91,0,0,1,0,5.8A2.71,2.71,0,0,1,1109.19,973.83Z"/>
      <path d="M1138.26,961c0,10.16-3.77,15.78-10.4,15.78-5.84,0-9.8-5.48-9.89-15.37s4.32-15.55,10.4-15.55C1134.67,945.81,1138.26,951.42,1138.26,961Zm-16.24.46c0,7.77,2.39,12.19,6.07,12.19,4.14,0,6.12-4.83,6.12-12.47,0-7.36-1.89-12.19-6.07-12.19C1124.6,948.94,1122,953.26,1122,961.41Z"/>
      <path d="M1161.86,961c0,10.16-3.78,15.78-10.4,15.78-5.84,0-9.8-5.48-9.89-15.37s4.32-15.55,10.4-15.55C1158.27,945.81,1161.86,951.42,1161.86,961Zm-16.24.46c0,7.77,2.39,12.19,6.07,12.19,4.14,0,6.12-4.83,6.12-12.47,0-7.36-1.89-12.19-6.07-12.19C1148.19,948.94,1145.62,953.26,1145.62,961.41Z"/>
      <path d="M1185.45,961c0,10.16-3.77,15.78-10.39,15.78-5.85,0-9.8-5.48-9.89-15.37s4.32-15.55,10.39-15.55C1181.87,945.81,1185.45,951.42,1185.45,961Zm-16.24.46c0,7.77,2.4,12.19,6.08,12.19,4.14,0,6.12-4.83,6.12-12.47,0-7.36-1.89-12.19-6.08-12.19C1171.79,948.94,1169.21,953.26,1169.21,961.41Z"/>
      <path d="M1187.84,981.88a65,65,0,0,0,2.76-11l4.51-.46a56.05,56.05,0,0,1-4.37,11.18Z"/>
      <path d="M1209.37,962.28v3H1198v-3Z"/>
    </g>
    <g>
      <path d="M1022,1149.17a14.61,14.61,0,0,0-3,.18,12.15,12.15,0,0,0-10.39,10.63h.13a8.91,8.91,0,0,1,7.23-3.45c5.29,0,9,3.82,9,9.66,0,5.47-3.72,10.54-9.93,10.54-6.4,0-10.58-5-10.58-12.75,0-5.89,2.11-10.53,5.06-13.48a16.23,16.23,0,0,1,9.56-4.41,18.75,18.75,0,0,1,2.95-.23Zm-1.15,17.25c0-4.28-2.44-6.85-6.17-6.85a6.64,6.64,0,0,0-5.79,3.68,3.38,3.38,0,0,0-.46,1.79c.09,4.92,2.34,8.56,6.58,8.56C1018.52,1173.6,1020.87,1170.7,1020.87,1166.42Z"/>
      <path d="M1028.87,1173.83a2.72,2.72,0,0,1,2.76-2.9,2.91,2.91,0,1,1-2.76,2.9Z"/>
      <path d="M1055.14,1149.17a14.61,14.61,0,0,0-3,.18,12.14,12.14,0,0,0-10.39,10.63h.13a8.91,8.91,0,0,1,7.23-3.45c5.29,0,9,3.82,9,9.66,0,5.47-3.72,10.54-9.93,10.54-6.4,0-10.59-5-10.59-12.75,0-5.89,2.12-10.53,5.06-13.48a16.29,16.29,0,0,1,9.57-4.41,18.75,18.75,0,0,1,3-.23Zm-1.15,17.25c0-4.28-2.44-6.85-6.17-6.85a6.63,6.63,0,0,0-5.79,3.68,3.38,3.38,0,0,0-.46,1.79c.09,4.92,2.34,8.56,6.58,8.56C1051.64,1173.6,1054,1170.7,1054,1166.42Z"/>
      <path d="M1064,1173.37a16.94,16.94,0,0,0,3.27-.14,11.29,11.29,0,0,0,6.26-2.9,13.1,13.1,0,0,0,4-8h-.13a8.77,8.77,0,0,1-7,3.22c-5.39,0-8.84-4-8.84-9.15,0-5.66,4.1-10.63,10.22-10.63s9.89,5,9.89,12.61c0,6.57-2.21,11.17-5.15,14a15,15,0,0,1-8.7,4,18.57,18.57,0,0,1-3.73.23Zm1.48-17.21c0,3.73,2.25,6.35,5.75,6.35a6.69,6.69,0,0,0,5.89-3.13,2.68,2.68,0,0,0,.36-1.47c0-5.11-1.88-9-6.11-9C1067.92,1148.89,1065.49,1151.93,1065.49,1156.16Z"/>
      <path d="M1087.61,1173.37a16.94,16.94,0,0,0,3.27-.14,11.26,11.26,0,0,0,6.25-2.9,13.1,13.1,0,0,0,4-8H1101a8.74,8.74,0,0,1-7,3.22c-5.38,0-8.83-4-8.83-9.15,0-5.66,4.1-10.63,10.21-10.63s9.9,5,9.9,12.61c0,6.57-2.21,11.17-5.16,14a15,15,0,0,1-8.69,4,18.57,18.57,0,0,1-3.73.23Zm1.47-17.21c0,3.73,2.26,6.35,5.75,6.35a6.67,6.67,0,0,0,5.89-3.13,2.68,2.68,0,0,0,.37-1.47c0-5.11-1.88-9-6.12-9C1091.52,1148.89,1089.08,1151.93,1089.08,1156.16Z"/>
      <path d="M1109.19,1173.83a2.72,2.72,0,0,1,2.76-2.9,2.91,2.91,0,0,1,0,5.8A2.71,2.71,0,0,1,1109.19,1173.83Z"/>
      <path d="M1138.26,1161c0,10.16-3.77,15.78-10.4,15.78-5.84,0-9.8-5.48-9.89-15.37s4.32-15.55,10.4-15.55C1134.67,1145.81,1138.26,1151.42,1138.26,1161Zm-16.24.46c0,7.77,2.39,12.19,6.07,12.19,4.14,0,6.12-4.83,6.12-12.47,0-7.36-1.89-12.19-6.07-12.19C1124.6,1148.94,1122,1153.26,1122,1161.41Z"/>
      <path d="M1161.86,1161c0,10.16-3.78,15.78-10.4,15.78-5.84,0-9.8-5.48-9.89-15.37s4.32-15.55,10.4-15.55C1158.27,1145.81,1161.86,1151.42,1161.86,1161Zm-16.24.46c0,7.77,2.39,12.19,6.07,12.19,4.14,0,6.12-4.83,6.12-12.47,0-7.36-1.89-12.19-6.07-12.19C1148.19,1148.94,1145.62,1153.26,1145.62,1161.41Z"/>
      <path d="M1185.45,1161c0,10.16-3.77,15.78-10.39,15.78-5.85,0-9.8-5.48-9.89-15.37s4.32-15.55,10.39-15.55C1181.87,1145.81,1185.45,1151.42,1185.45,1161Zm-16.24.46c0,7.77,2.4,12.19,6.08,12.19,4.14,0,6.12-4.83,6.12-12.47,0-7.36-1.89-12.19-6.08-12.19C1171.79,1148.94,1169.21,1153.26,1169.21,1161.41Z"/>
      <path d="M1187.84,1181.88a65,65,0,0,0,2.76-11l4.51-.46a56.05,56.05,0,0,1-4.37,11.18Z"/>
      <path d="M1209.37,1162.28v3H1198v-3Z"/>
    </g>
    <g>
      <path d="M1022,1350.17a14.61,14.61,0,0,0-3,.18,12.15,12.15,0,0,0-10.39,10.63h.13a8.91,8.91,0,0,1,7.23-3.45c5.29,0,9,3.82,9,9.66,0,5.47-3.72,10.54-9.93,10.54-6.4,0-10.58-5-10.58-12.75,0-5.89,2.11-10.53,5.06-13.48a16.23,16.23,0,0,1,9.56-4.41,18.75,18.75,0,0,1,2.95-.23Zm-1.15,17.25c0-4.28-2.44-6.85-6.17-6.85a6.64,6.64,0,0,0-5.79,3.68,3.38,3.38,0,0,0-.46,1.79c.09,4.92,2.34,8.56,6.58,8.56C1018.52,1374.6,1020.87,1371.7,1020.87,1367.42Z"/>
      <path d="M1028.87,1374.83a2.72,2.72,0,0,1,2.76-2.9,2.91,2.91,0,1,1-2.76,2.9Z"/>
      <path d="M1055.14,1350.17a14.61,14.61,0,0,0-3,.18,12.14,12.14,0,0,0-10.39,10.63h.13a8.91,8.91,0,0,1,7.23-3.45c5.29,0,9,3.82,9,9.66,0,5.47-3.72,10.54-9.93,10.54-6.4,0-10.59-5-10.59-12.75,0-5.89,2.12-10.53,5.06-13.48a16.29,16.29,0,0,1,9.57-4.41,18.75,18.75,0,0,1,3-.23Zm-1.15,17.25c0-4.28-2.44-6.85-6.17-6.85a6.63,6.63,0,0,0-5.79,3.68,3.38,3.38,0,0,0-.46,1.79c.09,4.92,2.34,8.56,6.58,8.56C1051.64,1374.6,1054,1371.7,1054,1367.42Z"/>
      <path d="M1064,1374.37a16.94,16.94,0,0,0,3.27-.14,11.29,11.29,0,0,0,6.26-2.9,13.1,13.1,0,0,0,4-8h-.13a8.77,8.77,0,0,1-7,3.22c-5.39,0-8.84-4-8.84-9.15,0-5.66,4.1-10.63,10.22-10.63s9.89,5,9.89,12.61c0,6.57-2.21,11.17-5.15,14a15,15,0,0,1-8.7,4,18.57,18.57,0,0,1-3.73.23Zm1.48-17.21c0,3.73,2.25,6.35,5.75,6.35a6.69,6.69,0,0,0,5.89-3.13,2.68,2.68,0,0,0,.36-1.47c0-5.11-1.88-9-6.11-9C1067.92,1349.89,1065.49,1352.93,1065.49,1357.16Z"/>
      <path d="M1087.61,1374.37a16.94,16.94,0,0,0,3.27-.14,11.26,11.26,0,0,0,6.25-2.9,13.1,13.1,0,0,0,4-8H1101a8.74,8.74,0,0,1-7,3.22c-5.38,0-8.83-4-8.83-9.15,0-5.66,4.1-10.63,10.21-10.63s9.9,5,9.9,12.61c0,6.57-2.21,11.17-5.16,14a15,15,0,0,1-8.69,4,18.57,18.57,0,0,1-3.73.23Zm1.47-17.21c0,3.73,2.26,6.35,5.75,6.35a6.67,6.67,0,0,0,5.89-3.13,2.68,2.68,0,0,0,.37-1.47c0-5.11-1.88-9-6.12-9C1091.52,1349.89,1089.08,1352.93,1089.08,1357.16Z"/>
      <path d="M1109.19,1374.83a2.72,2.72,0,0,1,2.76-2.9,2.91,2.91,0,0,1,0,5.8A2.71,2.71,0,0,1,1109.19,1374.83Z"/>
      <path d="M1138.26,1362c0,10.16-3.77,15.78-10.4,15.78-5.84,0-9.8-5.48-9.89-15.37s4.32-15.55,10.4-15.55C1134.67,1346.81,1138.26,1352.42,1138.26,1362Zm-16.24.46c0,7.77,2.39,12.19,6.07,12.19,4.14,0,6.12-4.83,6.12-12.47,0-7.36-1.89-12.19-6.07-12.19C1124.6,1349.94,1122,1354.26,1122,1362.41Z"/>
      <path d="M1161.86,1362c0,10.16-3.78,15.78-10.4,15.78-5.84,0-9.8-5.48-9.89-15.37s4.32-15.55,10.4-15.55C1158.27,1346.81,1161.86,1352.42,1161.86,1362Zm-16.24.46c0,7.77,2.39,12.19,6.07,12.19,4.14,0,6.12-4.83,6.12-12.47,0-7.36-1.89-12.19-6.07-12.19C1148.19,1349.94,1145.62,1354.26,1145.62,1362.41Z"/>
      <path d="M1185.45,1362c0,10.16-3.77,15.78-10.39,15.78-5.85,0-9.8-5.48-9.89-15.37s4.32-15.55,10.39-15.55C1181.87,1346.81,1185.45,1352.42,1185.45,1362Zm-16.24.46c0,7.77,2.4,12.19,6.08,12.19,4.14,0,6.12-4.83,6.12-12.47,0-7.36-1.89-12.19-6.08-12.19C1171.79,1349.94,1169.21,1354.26,1169.21,1362.41Z"/>
      <path d="M1187.84,1382.88a65,65,0,0,0,2.76-11l4.51-.46a56.05,56.05,0,0,1-4.37,11.18Z"/>
      <path d="M1209.37,1363.28v3H1198v-3Z"/>
    </g>
    <g>
      <path d="M199.74,1047.09h-.09l-5.2,2.8-.78-3.08,6.53-3.49h3.45v29.9h-3.91Z"/>
      <path d="M214.87,1070.83a2.72,2.72,0,0,1,2.76-2.9,2.91,2.91,0,1,1-2.76,2.9Z"/>
      <path d="M241.92,1046.72H230.51l-1.15,7.68a16.41,16.41,0,0,1,2.44-.18,12.68,12.68,0,0,1,6.44,1.61,8.51,8.51,0,0,1,4.28,7.68c0,5.84-4.65,10.22-11.14,10.22a14.66,14.66,0,0,1-7.45-1.84l1-3.09a13.37,13.37,0,0,0,6.4,1.66c3.82,0,7.08-2.49,7.08-6.49s-2.62-6.62-8.6-6.62a30.62,30.62,0,0,0-4.14.32l1.93-14.35h14.31Z"/>
      <path d="M250,1070.37a16.94,16.94,0,0,0,3.27-.14,11.29,11.29,0,0,0,6.26-2.9,13.1,13.1,0,0,0,3.95-8h-.13a8.77,8.77,0,0,1-7,3.22c-5.39,0-8.84-4-8.84-9.15,0-5.66,4.1-10.63,10.22-10.63s9.89,5,9.89,12.61c0,6.57-2.21,11.17-5.15,14a15,15,0,0,1-8.7,4,18.57,18.57,0,0,1-3.73.23Zm1.48-17.21c0,3.73,2.25,6.35,5.75,6.35a6.69,6.69,0,0,0,5.89-3.13,2.68,2.68,0,0,0,.36-1.47c0-5.11-1.88-9-6.11-9C253.92,1045.89,251.49,1048.93,251.49,1053.16Z"/>
      <path d="M289.12,1046.72H277.71l-1.15,7.68a16.26,16.26,0,0,1,2.43-.18,12.74,12.74,0,0,1,6.45,1.61,8.52,8.52,0,0,1,4.27,7.68c0,5.84-4.64,10.22-11.13,10.22a14.6,14.6,0,0,1-7.45-1.84l1-3.09a13.33,13.33,0,0,0,6.39,1.66c3.82,0,7.09-2.49,7.09-6.49s-2.62-6.62-8.6-6.62a30.48,30.48,0,0,0-4.14.32l1.93-14.35h14.31Z"/>
      <path d="M295.19,1070.83a2.72,2.72,0,0,1,2.76-2.9,2.91,2.91,0,0,1-.05,5.8A2.71,2.71,0,0,1,295.19,1070.83Z"/>
      <path d="M324.26,1058c0,10.16-3.77,15.78-10.4,15.78-5.84,0-9.8-5.48-9.89-15.37s4.32-15.55,10.4-15.55C320.67,1042.81,324.26,1048.42,324.26,1058Zm-16.24.46c0,7.77,2.39,12.19,6.07,12.19,4.14,0,6.12-4.83,6.12-12.47,0-7.36-1.89-12.19-6.07-12.19C310.6,1045.94,308,1050.26,308,1058.41Z"/>
      <path d="M347.86,1058c0,10.16-3.78,15.78-10.4,15.78-5.84,0-9.8-5.48-9.89-15.37s4.32-15.55,10.4-15.55C344.27,1042.81,347.86,1048.42,347.86,1058Zm-16.24.46c0,7.77,2.39,12.19,6.07,12.19,4.14,0,6.12-4.83,6.12-12.47,0-7.36-1.89-12.19-6.07-12.19C334.19,1045.94,331.62,1050.26,331.62,1058.41Z"/>
      <path d="M371.45,1058c0,10.16-3.77,15.78-10.39,15.78-5.85,0-9.8-5.48-9.89-15.37s4.32-15.55,10.39-15.55C367.87,1042.81,371.45,1048.42,371.45,1058Zm-16.24.46c0,7.77,2.4,12.19,6.08,12.19,4.14,0,6.12-4.83,6.12-12.47,0-7.36-1.89-12.19-6.08-12.19C357.79,1045.94,355.21,1050.26,355.21,1058.41Z"/>
      <path d="M373.84,1078.88a65,65,0,0,0,2.76-11l4.51-.46a56.05,56.05,0,0,1-4.37,11.18Z"/>
      <path d="M395.37,1059.28v3H384v-3Z"/>
    </g>
  </g>
</svg>
