<svg id="Layer_1" data-name="Layer 1" xmlns="http://www.w3.org/2000/svg" viewBox="0 0 512 512"><defs><style>.cls-1{fill:#707071;}</style></defs><path class="cls-1" d="M352,.13H160a160,160,0,0,0-160,160v192a160,160,0,0,0,160,160H352a160,160,0,0,0,160-160v-192A160,160,0,0,0,352,.13Zm112,352a112.12,112.12,0,0,1-112,112H160a112.12,112.12,0,0,1-112-112v-192a112.12,112.12,0,0,1,112-112H352a112.12,112.12,0,0,1,112,112Z"/><path class="cls-1" d="M256,128.13a128,128,0,1,0,128,128A128,128,0,0,0,256,128.13Zm0,208a80,80,0,1,1,80-80A80.11,80.11,0,0,1,256,336.13Z"/><circle class="cls-1" cx="393.6" cy="118.53" r="17.06"/></svg>
