<svg id="Layer_1" data-name="Layer 1" xmlns="http://www.w3.org/2000/svg" viewBox="0 0 500 456.47"><defs><style>.cls-1{fill:#ddcab4;}</style></defs><path class="cls-1" d="M241.35,54.71c47.31,0,71.23,9.42,81.93,31l43.35-28.23h42.7A249.46,249.46,0,0,0,88.57,60.12c14-3.77,31.58-5.41,53.13-5.41Z"/><path class="cls-1" d="M281.87,382.82H202.29c-11.56,0-19.73,5.1-22.11,16.32H114.89V304.39h-70V220.47c0-30.34,19.78-50.45,68.54-53.86l86.67-5.46c55.29-3.42,59-4.44,59-28.68,0-20.14-2-24.58-50.51-24.58H158.42c-32.08,0-42,4.78-42,30.38v10.59H44.84v-29a103.53,103.53,0,0,1,.69-12.16A249.48,249.48,0,0,0,108.61,455a97.82,97.82,0,0,1-1.88-20.15V420.56H176.1c0,20.75,5.78,26.53,40.47,26.53h70.74c34.69,0,38.43-9.52,38.43-33.33C325.74,385.88,316.56,382.82,281.87,382.82Z"/><path class="cls-1" d="M457,109.79v194.6H387.44V116.76L329.8,153.69c-4.1,49.5-24.38,59.24-100.74,63.37l-78.15,4.09c-31.74,1.71-36.51,7.86-36.51,30.06H358.5v53.18H180.18v42.72c9.53-9.52,19.73-15.31,46.94-15.31h85.36c52.37,0,82.63,17,82.63,71.42v15.65c0,15.17-1.58,27.53-4.76,37.6a249.32,249.32,0,0,0,109-188q.68-9.21.68-18.6A248.27,248.27,0,0,0,457,109.79Z"/></svg>
